<svg id="freepik--Character--inject-2" xmlns="http://www.w3.org/2000/svg" width="143.56" height="300" viewBox="0 0 143.56 300">
  <path id="Path_1249" data-name="Path 1249" d="M242.48,403.937l7.7.866,2.839-17.457-7.7-.866Z" transform="translate(-200.843 -113.717)" fill="#ffc3bd"/>
  <path id="Path_1250" data-name="Path 1250" d="M280.88,405.728h7.687l1.908-17.8h-7.687Z" transform="translate(-273.697 -113.831)" fill="#ffc3bd"/>
  <path id="Path_1251" data-name="Path 1251" d="M278.383,406.27h-9.365a.673.673,0,0,0-.654.525l-1.521,6.83a1.124,1.124,0,0,0,1.124,1.364c3.014-.046,5.217-.221,9.014-.221,2.332,0,9.374.24,12.6.24s3.687-3.189,2.323-3.475c-5.917-1.3-10.379-3.088-12.277-4.793A1.843,1.843,0,0,0,278.383,406.27Z" transform="translate(-262.886 -115.267)" fill="#0b155a"/>
  <path id="Path_1252" data-name="Path 1252" d="M241.131,404.851l-8.3-.922a.664.664,0,0,0-.71.452l-2.277,6.609a1.115,1.115,0,0,0,.922,1.484c3.014.295,7.374.608,11.162,1.042,4.424.5,5.162,1.687,10.369,1.558,3.162-.074,3.963-3.281,2.636-3.539-6.047-1.171-7.208-2.083-11.982-5.853a3.521,3.521,0,0,0-1.825-.83Z" transform="translate(-191.678 -115.083)" fill="#0b155a"/>
  <path id="Path_1253" data-name="Path 1253" d="M173.6,161.483c2.581,2.129,5.125,3.982,7.752,5.881s5.309,3.687,8.074,5.374,5.595,3.337,8.572,4.821a62.034,62.034,0,0,0,9.457,3.973c.857.267,1.7.5,2.664.728a25.69,25.69,0,0,0,2.867.461c1.733.194,3.355.267,4.977.35,3.235.147,6.452.138,9.586.12,6.341-.074,12.628-.378,18.951-.922l.092-5.77c-6.2-.793-12.434-1.484-18.6-2.175-3.079-.341-6.157-.71-9.153-1.106-1.5-.2-2.986-.442-4.351-.7a17.663,17.663,0,0,1-1.751-.406c-.535-.184-1.2-.4-1.843-.645a62.868,62.868,0,0,1-7.659-3.742c-2.553-1.466-5.1-3.042-7.6-4.71s-5-3.4-7.484-5.162-4.94-3.632-7.263-5.4Z" transform="translate(-130.931 -95.398)" fill="#ffc3bd"/>
  <path id="Path_1254" data-name="Path 1254" d="M231.356,154.189c1.106,7.263,16.4,18.37,16.4,18.37l10.978-13.614a182.22,182.22,0,0,0-15.273-14.526C238.527,140.382,230.158,146.281,231.356,154.189Z" transform="translate(-196.199 -94.667)" fill="#ff4a23"/>
  <path id="Path_1255" data-name="Path 1255" d="M170.65,178.916l4.36-3.106.479,9.816s-2.415,0-3.346-1.77Z" transform="translate(-57.109 -97.226)" fill="#ffc3bd"/>
  <path id="Path_1256" data-name="Path 1256" d="M169.865,172.71l.894,9.614-4.36,3.06-.479-9.816Z" transform="translate(-48.02 -96.984)" fill="#ffc3bd"/>
  <path id="Path_1257" data-name="Path 1257" d="M251.643,387.356l-1.456,9-7.7-.866,1.456-9Z" transform="translate(-199.48 -113.718)" opacity="0.2"/>
  <path id="Path_1258" data-name="Path 1258" d="M281.866,387.93h7.687l-.986,9.18H280.88Z" transform="translate(-272.775 -113.831)" opacity="0.2"/>
  <path id="Path_1259" data-name="Path 1259" d="M243.677,144.541a4.387,4.387,0,0,0-3.3,5.355,180.531,180.531,0,0,1,3.761,21.006c.728,5.954,1.161,11.641,1.429,16.794.645,12.075.378,21.283.737,24.407l41.007-2.839c4.166-32.629-.71-53.46-3.456-61.912a7.318,7.318,0,0,0-5.991-5.014c-1.576-.2-3.456-.406-5.447-.525-.691,0-1.4-.065-2.111-.083a152.46,152.46,0,0,0-17.448,1.171c-1.1.129-2.2.295-3.281.461C247.429,143.739,245.373,144.163,243.677,144.541Z" transform="translate(-234.697 -94.559)" fill="#0b155a"/>
  <path id="Path_1260" data-name="Path 1260" d="M260.006,121.61c1.493,5.53,3.309,15.725-.35,19.743,9.5,6.4,15.568,15.393,17.319,13.439.922-1.023,1.309-12.9.111-14.655-6.36-1.06-6.526-5.705-5.742-10.139Z" transform="translate(-241.495 -92.984)" fill="#ffc3bd"/>
  <path id="Path_1261" data-name="Path 1261" d="M261.764,140.54s15.494,6.858,17.513,22.177c-4.258-4.94-13.688-10.314-13.688-10.314l4.157-1.189a42.463,42.463,0,0,0-8.166-2.2c.461-2.12-2-6.341-2-6.341Z" transform="translate(-242.866 -94.465)" fill="#ff4a23"/>
  <path id="Path_1262" data-name="Path 1262" d="M254.977,140.27s-2.055,8.756,3.567,22.425c.876-5.217,4.553-13.946,4.553-13.946l-3.8,1.023s.194-1.76,3.263-4.111c-1.143-2.194-4.719-4.784-4.719-4.784Z" transform="translate(-222.105 -94.444)" fill="#ff4a23"/>
  <path id="Path_1263" data-name="Path 1263" d="M266.82,125.32l6.71,4.959a17.514,17.514,0,0,0-.323,3.134c-2.415-.175-5.881-2.572-6.3-5.06a8.368,8.368,0,0,1-.083-3.032Z" transform="translate(-243.7 -93.274)" opacity="0.2"/>
  <path id="Path_1264" data-name="Path 1264" d="M255.839,104.23c3.751.157,5.816,6.618,2.019,11.982S250.8,104.018,255.839,104.23Z" transform="translate(-217.64 -91.623)" fill="#0b155a"/>
  <path id="Path_1265" data-name="Path 1265" d="M254.894,109.558c-.442,7.613-1.088,12.047,2.258,16.379,5.042,6.526,14.794,4.194,17.513-3.134,2.433-6.6,2.765-17.946-4.286-21.836a10.406,10.406,0,0,0-15.485,8.59Z" transform="translate(-235.175 -91.264)" fill="#ffc3bd"/>
  <path id="Path_1266" data-name="Path 1266" d="M258.927,114.69c5.77-3.687,7.807-8.544,8.249-10.987,2.24.525,13.356,5.641,16.775,0s-.922-8.959-7.282-5.484c2.83-5,.258-7.438-8.637-7.66s-7.7,4.94-7.7,4.94-6.729-2.931-9.116,2.231C248.465,103.666,253.553,113.8,258.927,114.69Z" transform="translate(-240.323 -90.553)" fill="#0b155a"/>
  <path id="Path_1267" data-name="Path 1267" d="M282.873,94.184c-.083,0-3.364.793-7.153-3.014.673,3.244,6.553,5.411,6.553,5.411Z" transform="translate(-261.338 -90.601)" fill="#0b155a"/>
  <path id="Path_1268" data-name="Path 1268" d="M274.7,106.515c3.539-1.226,7.835,4.028,6.249,10.369S269.918,108.165,274.7,106.515Z" transform="translate(-257.582 -91.788)" fill="#0b155a"/>
  <path id="Path_1269" data-name="Path 1269" d="M275.1,116.928a7.208,7.208,0,0,0,2.95,4.682c2.083,1.456,3.963-.2,4.083-2.608.111-2.166-.848-5.53-3.272-6.028S274.725,114.605,275.1,116.928Z" transform="translate(-259.993 -92.302)" fill="#ffc3bd"/>
  <path id="Path_1270" data-name="Path 1270" d="M245.2,301.559c-1.843-22.472-15.393-84.7-15.393-84.7L256.766,215s10.4,61.755,11.19,85.2c.83,24.38-8.978,78.549-8.978,78.549l-12.9-1.475S247.061,324.132,245.2,301.559Z" transform="translate(-204.152 -100.294)" fill="#ff4a23"/>
  <path id="Path_1271" data-name="Path 1271" d="M245.2,301.559c-1.843-22.472-15.393-84.7-15.393-84.7L256.766,215s10.4,61.755,11.19,85.2c.83,24.38-8.978,78.549-8.978,78.549l-12.9-1.475S247.061,324.132,245.2,301.559Z" transform="translate(-204.152 -100.294)" fill="#fff" opacity="0.5"/>
  <path id="Path_1272" data-name="Path 1272" d="M259.627,239.88c5.438,6.95,5.53,31.339,3.429,49.386-2-13.015-5.152-29.5-7.927-43.321Z" transform="translate(-223.816 -102.242)" opacity="0.2"/>
  <path id="Path_1273" data-name="Path 1273" d="M290.584,216.08s-2.913,65.792-6.157,88.07c-3.549,24.4-12.572,77.766-12.572,77.766H257.78s2.314-50.225,4.175-74.2c2.111-27.3,2.166-89.757,2.166-89.757Z" transform="translate(-252.514 -100.379)" fill="#ff4a23"/>
  <path id="Path_1274" data-name="Path 1274" d="M290.584,216.08s-2.913,65.792-6.157,88.07c-3.549,24.4-12.572,77.766-12.572,77.766H257.78s2.314-50.225,4.175-74.2c2.111-27.3,2.166-89.757,2.166-89.757Z" transform="translate(-252.514 -100.379)" fill="#fff" opacity="0.5"/>
  <path id="Path_1275" data-name="Path 1275" d="M290.723,395.842H274.15v-4.95l18.527-.323Z" transform="translate(-269.695 -114.038)" fill="#ff4a23"/>
  <path id="Path_1276" data-name="Path 1276" d="M251.781,393.649,236.37,391.9l.562-4.977,17.255,1.687Z" transform="translate(-196.383 -113.752)" fill="#ff4a23"/>
  <path id="Path_1277" data-name="Path 1277" d="M263.936,114.093c-.074.618.194,1.161.6,1.207s.784-.415.866-1.032-.194-1.152-.6-1.2S264.01,113.484,263.936,114.093Z" transform="translate(-233.01 -92.315)" fill="#0b155a"/>
  <path id="Path_1278" data-name="Path 1278" d="M256.419,115c-.074.618.194,1.152.6,1.207s.783-.415.857-1.032-.194-1.152-.59-1.2S256.511,114.385,256.419,115Z" transform="translate(-218.552 -92.386)" fill="#0b155a"/>
  <path id="Path_1279" data-name="Path 1279" d="M258.611,115.14a22.221,22.221,0,0,0,2.313,5.613,3.586,3.586,0,0,1-3.014.194Z" transform="translate(-222.974 -92.477)" fill="#ed847e"/>
  <path id="Path_1280" data-name="Path 1280" d="M264.211,111.307a.36.36,0,0,0,.369-.092,2.913,2.913,0,0,1,2.461-.922.369.369,0,0,0,.47-.332.35.35,0,0,0-.295-.424,3.586,3.586,0,0,0-3.115,1.134.359.359,0,0,0,0,.516A.424.424,0,0,0,264.211,111.307Z" transform="translate(-235.173 -92.036)" fill="#0b155a"/>
  <path id="Path_1281" data-name="Path 1281" d="M268.431,123.81h0a5.586,5.586,0,0,1-3.982-3.272.194.194,0,0,1,.111-.249.2.2,0,0,1,.258.12,5.281,5.281,0,0,0,3.687,3.014.2.2,0,0,1-.074.387Z" transform="translate(-236.721 -92.879)" fill="#0b155a"/>
  <path id="Path_1282" data-name="Path 1282" d="M256.274,112.64a.3.3,0,0,0,.221,0,.369.369,0,0,0,.23-.461,3.631,3.631,0,0,0-2.35-2.35.359.359,0,0,0-.442.267.35.35,0,0,0,.258.433h0a2.894,2.894,0,0,1,1.843,1.843.332.332,0,0,0,.24.267Z" transform="translate(-215.117 -92.061)" fill="#0b155a"/>
  <path id="Path_1283" data-name="Path 1283" d="M279.648,407.567a2.313,2.313,0,0,0,1.475-.4,1.088,1.088,0,0,0,.378-.922.562.562,0,0,0-.313-.516c-.848-.442-3.327,1.088-3.6,1.263a.166.166,0,0,0-.083.184.175.175,0,0,0,.138.147,8.962,8.962,0,0,0,2.009.24Zm1.143-1.595a.535.535,0,0,1,.23.046.221.221,0,0,1,.12.212.747.747,0,0,1-.249.664,3.776,3.776,0,0,1-2.765.138A7.44,7.44,0,0,1,280.791,405.973Z" transform="translate(-261.607 -115.218)" fill="#ff4a23"/>
  <path id="Path_1284" data-name="Path 1284" d="M279.364,407.136a.165.165,0,0,0,.092,0c.793-.433,2.332-2.12,2.166-2.968a.6.6,0,0,0-.581-.479.977.977,0,0,0-.774.23c-.922.728-1.078,2.949-1.078,3.042a.146.146,0,0,0,.175.175Zm1.521-3.115h.074c.24,0,.258.138.267.184.1.507-.922,1.779-1.668,2.378a4.314,4.314,0,0,1,.922-2.406.636.636,0,0,1,.406-.157Z" transform="translate(-263.295 -115.064)" fill="#ff4a23"/>
  <path id="Path_1285" data-name="Path 1285" d="M239.767,406.055h0c1.2.387,3.355.922,4.277.286a1,1,0,0,0,.433-.839.581.581,0,0,0-.24-.516c-.866-.608-4.12.59-4.48.728a.194.194,0,0,0-.12.175.175.175,0,0,0,.129.166Zm4.249-.793h0a.24.24,0,0,1,.092.212.654.654,0,0,1-.286.553c-.516.369-1.779.295-3.438-.175,1.336-.415,3.1-.866,3.632-.59Z" transform="translate(-189.687 -115.153)" fill="#ff4a23"/>
  <path id="Path_1286" data-name="Path 1286" d="M241.5,405.885a.2.2,0,0,0,.147,0c.968-.3,2.977-1.751,2.931-2.627,0-.212-.12-.479-.608-.581a1.309,1.309,0,0,0-1.042.194c-1.06.691-1.5,2.765-1.521,2.765a.2.2,0,0,0,.055.175Zm2.59-2.765c.12.065.129.138.129.175,0,.525-1.364,1.678-2.369,2.138a4.258,4.258,0,0,1,1.281-2.24.922.922,0,0,1,.756-.147.625.625,0,0,1,.2.064Z" transform="translate(-191.424 -114.982)" fill="#ff4a23"/>
  <path id="Path_1287" data-name="Path 1287" d="M250.41,156.73c.194,3,.544,5.8.922,8.683s.857,5.715,1.4,8.572a101.007,101.007,0,0,0,4.728,17.126l.922,2.148.23.535.055.138.092.2.277.571a9.3,9.3,0,0,0,1.272,1.843,11.236,11.236,0,0,0,2.765,2.286,16.474,16.474,0,0,0,2.645,1.281,34.592,34.592,0,0,0,9.457,1.982,79.269,79.269,0,0,0,17.586-.654l-.212-5.77-4.065-.461c-1.364-.157-2.719-.369-4.065-.553-2.691-.4-5.355-.839-7.9-1.429a30.1,30.1,0,0,1-6.793-2.249,3.761,3.761,0,0,1-1.484-1.134c0-.138.267.442-.074-.479l-.608-1.779a116.131,116.131,0,0,1-3.41-15.54c-.442-2.673-.811-5.374-1.18-8.084s-.654-5.466-.922-8.056Z" transform="translate(-247.9 -95.669)" fill="#ffc3bd"/>
  <path id="Path_1288" data-name="Path 1288" d="M277.976,150.312c-3.761,6.3-.553,26.14-.553,26.14l19.725-3.687s1.069-11.356-2.691-20.075C290.373,143.233,282.529,142.662,277.976,150.312Z" transform="translate(-276.148 -94.818)" fill="#ff4a23"/>
  <path id="Path_1289" data-name="Path 1289" d="M189.073,213.527l10.462-48.667a9.844,9.844,0,0,1,9.153-7.53h40.077a9.862,9.862,0,0,0-9.153,7.53l-10.452,48.667a9.862,9.862,0,0,1-9.153,7.53H179.92a9.853,9.853,0,0,0,9.153-7.53Z" transform="translate(-138.928 -95.78)" fill="#263238"/>
  <path id="Path_1290" data-name="Path 1290" d="M189.073,213.527l10.462-48.667a9.844,9.844,0,0,1,9.153-7.53h40.077a9.862,9.862,0,0,0-9.153,7.53l-10.452,48.667a9.862,9.862,0,0,1-9.153,7.53H179.92a9.853,9.853,0,0,0,9.153-7.53Z" transform="translate(-138.928 -95.78)" fill="#ff4a23" opacity="0.7"/>
  <rect id="Rectangle_17482" data-name="Rectangle 17482" width="11.466" height="0.925" transform="translate(125.577 131.683) rotate(-95.143)" fill="#ff4a23"/>
  <rect id="Rectangle_17483" data-name="Rectangle 17483" width="4.802" height="0.922" transform="matrix(-0.092, -0.996, 0.996, -0.092, 127.063, 141.986)" fill="#ff4a23"/>
  <path id="Path_1291" data-name="Path 1291" d="M199.749,157.33H159.673a8.415,8.415,0,0,1,8.213,7.53l10.4,113.077a8.425,8.425,0,0,0,8.222,7.53H211.52a6.765,6.765,0,0,0,6.848-7.53l-10.4-113.077a8.425,8.425,0,0,0-8.222-7.53Z" transform="translate(-89.914 -95.78)" fill="#ff4a23"/>
  <path id="Path_1292" data-name="Path 1292" d="M150.18,288.18a6.765,6.765,0,0,1-6.848,7.53h40.086a6.756,6.756,0,0,0,6.839-7.53Z" transform="translate(-46.741 -106.023)" fill="#263238"/>
  <path id="Path_1293" data-name="Path 1293" d="M150.18,288.18a6.765,6.765,0,0,1-6.848,7.53h40.086a6.756,6.756,0,0,0,6.839-7.53Z" transform="translate(-46.741 -106.023)" fill="#ff4a23" opacity="0.7"/>
  <g id="Group_3568" data-name="Group 3568" transform="translate(83.124 70.942)" opacity="0.5">
    <path id="Path_1294" data-name="Path 1294" d="M177.651,170.8h27.172a1.475,1.475,0,0,0,1.484-1.641h0a1.843,1.843,0,0,0-1.788-1.641H177.393a1.475,1.475,0,0,0-1.484,1.641h0A1.843,1.843,0,0,0,177.651,170.8Z" transform="translate(-175.9 -167.52)" fill="#fff"/>
    <path id="Path_1295" data-name="Path 1295" d="M176.817,180.421h27.126a1.475,1.475,0,0,0,1.493-1.641h0a1.843,1.843,0,0,0-1.788-1.641H176.522a1.475,1.475,0,0,0-1.493,1.641h0A1.843,1.843,0,0,0,176.817,180.421Z" transform="translate(-174.218 -168.273)" fill="#fff"/>
    <path id="Path_1296" data-name="Path 1296" d="M175.938,190.051h20.49a1.475,1.475,0,0,0,1.484-1.641h0a1.843,1.843,0,0,0-1.788-1.641H175.652a1.475,1.475,0,0,0-1.493,1.641h0A1.844,1.844,0,0,0,175.938,190.051Z" transform="translate(-165.891 -169.027)" fill="#fff"/>
    <path id="Path_1297" data-name="Path 1297" d="M175.068,199.722h6.941a1.475,1.475,0,0,0,1.493-1.631h0a1.843,1.843,0,0,0-1.788-1.641h-6.95a1.475,1.475,0,0,0-1.484,1.641h0a1.843,1.843,0,0,0,1.788,1.631Z" transform="translate(-150.67 -169.784)" fill="#fff"/>
    <path id="Path_1298" data-name="Path 1298" d="M174.159,209.3H201.3a1.475,1.475,0,0,0,1.484-1.641h0A1.843,1.843,0,0,0,201,206.02H173.882a1.475,1.475,0,0,0-1.493,1.641h0A1.843,1.843,0,0,0,174.159,209.3Z" transform="translate(-169.135 -170.534)" fill="#fff"/>
    <path id="Path_1299" data-name="Path 1299" d="M173.307,218.931H189.76a1.475,1.475,0,0,0,1.493-1.641h0a1.843,1.843,0,0,0-1.788-1.641H173.021a1.484,1.484,0,0,0-1.493,1.641h0A1.843,1.843,0,0,0,173.307,218.931Z" transform="translate(-156.808 -171.287)" fill="#fff"/>
    <path id="Path_1300" data-name="Path 1300" d="M172.428,228.551h27.126a1.475,1.475,0,0,0,1.484-1.641h0a1.843,1.843,0,0,0-1.788-1.641h-27.1a1.484,1.484,0,0,0-1.493,1.641h0A1.843,1.843,0,0,0,172.428,228.551Z" transform="translate(-165.791 -172.04)" fill="#fff"/>
    <path id="Path_1301" data-name="Path 1301" d="M171.567,238.181h20.471a1.475,1.475,0,0,0,1.493-1.641h0a1.843,1.843,0,0,0-1.788-1.641H171.272a1.475,1.475,0,0,0-1.493,1.641h0A1.843,1.843,0,0,0,171.567,238.181Z" transform="translate(-157.474 -172.794)" fill="#fff"/>
    <path id="Path_1302" data-name="Path 1302" d="M170.689,247.811h6.95a1.484,1.484,0,0,0,1.493-1.641h0a1.843,1.843,0,0,0-1.8-1.641h-6.941a1.475,1.475,0,0,0-1.493,1.641h0A1.843,1.843,0,0,0,170.689,247.811Z" transform="translate(-142.262 -173.548)" fill="#fff"/>
    <path id="Path_1303" data-name="Path 1303" d="M169.817,257.431h27.117a1.475,1.475,0,0,0,1.493-1.641h0a1.843,1.843,0,0,0-1.788-1.641H169.513a1.475,1.475,0,0,0-1.484,1.641h0A1.843,1.843,0,0,0,169.817,257.431Z" transform="translate(-160.757 -174.301)" fill="#fff"/>
    <path id="Path_1304" data-name="Path 1304" d="M168.937,267.061h16.444a1.475,1.475,0,0,0,1.493-1.641h0a1.843,1.843,0,0,0-1.788-1.641H168.642a1.475,1.475,0,0,0-1.493,1.641h0A1.843,1.843,0,0,0,168.937,267.061Z" transform="translate(-148.392 -175.055)" fill="#fff"/>
    <path id="Path_1305" data-name="Path 1305" d="M168.066,276.722h27.117a1.475,1.475,0,0,0,1.493-1.641h0a1.843,1.843,0,0,0-1.788-1.631H167.762a1.475,1.475,0,0,0-1.484,1.631h0a1.843,1.843,0,0,0,1.788,1.641Z" transform="translate(-157.393 -175.812)" fill="#fff"/>
  </g>
  <path id="Path_1306" data-name="Path 1306" d="M243.84,199.186l5.89-5.116,2.765,9.42s-5.982,3.244-8.047.267Z" transform="translate(-201.576 -98.656)" fill="#ffc3bd"/>
  <path id="Path_1307" data-name="Path 1307" d="M244.216,193.67l1.917,7.9-5.567,1.89-2.756-9.42Z" transform="translate(-189.656 -98.624)" fill="#ffc3bd"/>
</svg>
