<svg xmlns="http://www.w3.org/2000/svg" width="350" height="299.486" viewBox="0 0 350 299.486">
  <g id="Schedule-rafiki" transform="translate(-69.374 -96.158)">
    <g id="freepik--Calendar--inject-2" transform="translate(107.477 96.158)">
      <path id="Path_1180" data-name="Path 1180" d="M400.392,311.818H377.91v-.937h22.482a14.988,14.988,0,0,0,12.862-7.831l.824.45a15.925,15.925,0,0,1-13.686,8.318Z" transform="translate(-126.987 -109.241)" fill="#ff4a23"/>
      <rect id="Rectangle_17481" data-name="Rectangle 17481" width="9.208" height="0.937" transform="translate(237.265 201.641)" fill="#ff4a23"/>
      <path id="Path_1181" data-name="Path 1181" d="M383.454,296.389H120.411a10.164,10.164,0,0,1-10.3-11.241l14.211-163a12.553,12.553,0,0,1,12.178-11.241H399.539a10.173,10.173,0,0,1,10.3,11.241l-14.126,163a12.553,12.553,0,0,1-12.262,11.241Z" transform="translate(-110.049 -97.091)" fill="#ff4a23"/>
      <path id="Path_1182" data-name="Path 1182" d="M378.154,294.4H121.667a8.656,8.656,0,0,1-8.731-9.611L125.883,136.3a3.073,3.073,0,0,1,2.988-2.754H399.006a2.482,2.482,0,0,1,2.511,2.754L388.561,284.791a10.688,10.688,0,0,1-10.407,9.611Z" transform="translate(-110.228 -98.522)" fill="#fff"/>
      <path id="Path_1183" data-name="Path 1183" d="M156.3,123.794a12.478,12.478,0,0,1-12.618-13.817A15.4,15.4,0,0,1,158.673,96.16a12.468,12.468,0,0,1,12.609,13.817h-5.621a7.4,7.4,0,0,0-7.494-8.2,9.133,9.133,0,0,0-8.918,8.2,7.4,7.4,0,0,0,7.494,8.2Z" transform="translate(-112.171 -96.158)" fill="#0b155a"/>
      <path id="Path_1184" data-name="Path 1184" d="M215.651,123.794A12.478,12.478,0,0,1,203,109.977,15.4,15.4,0,0,1,217.983,96.16a12.468,12.468,0,0,1,12.609,13.817h-5.621a7.4,7.4,0,0,0-7.494-8.2,9.133,9.133,0,0,0-8.918,8.2,7.41,7.41,0,0,0,7.494,8.2Z" transform="translate(-115.921 -96.158)" fill="#0b155a"/>
      <path id="Path_1185" data-name="Path 1185" d="M275,123.794A12.478,12.478,0,0,1,262.4,109.977,15.382,15.382,0,0,1,277.383,96.16a12.468,12.468,0,0,1,12.609,13.817h-5.621a7.391,7.391,0,0,0-7.494-8.2,9.124,9.124,0,0,0-8.909,8.2,7.4,7.4,0,0,0,7.494,8.2Z" transform="translate(-119.678 -96.158)" fill="#0b155a"/>
      <path id="Path_1186" data-name="Path 1186" d="M334.354,123.794a12.478,12.478,0,0,1-12.609-13.817A15.391,15.391,0,0,1,336.733,96.16a12.478,12.478,0,0,1,12.618,13.817h-5.621a7.4,7.4,0,0,0-7.494-8.2,9.124,9.124,0,0,0-8.909,8.2,7.4,7.4,0,0,0,7.494,8.2Z" transform="translate(-123.431 -96.158)" fill="#0b155a"/>
      <path id="Path_1187" data-name="Path 1187" d="M393.7,123.794A12.478,12.478,0,0,1,381.1,109.977,15.391,15.391,0,0,1,396.083,96.16,12.478,12.478,0,0,1,408.7,109.977h-5.621a7.4,7.4,0,0,0-7.494-8.2,9.133,9.133,0,0,0-8.909,8.2,7.4,7.4,0,0,0,7.494,8.2Z" transform="translate(-127.183 -96.158)" fill="#0b155a"/>
      <path id="Path_1188" data-name="Path 1188" d="M378.2,288.227H124.641a.412.412,0,0,1-.422-.468l12.637-144.88a.515.515,0,0,1,.506-.468H390.908a.422.422,0,0,1,.431.468L378.7,287.759A.515.515,0,0,1,378.2,288.227Zm-253-.937H377.8l12.562-143.943H137.756Z" transform="translate(-110.944 -99.083)" fill="#e0e0e0"/>
      <path id="Path_1189" data-name="Path 1189" d="M380.858,267.077H127.341a.421.421,0,0,1-.422-.468.506.506,0,0,1,.506-.468H380.971a.422.422,0,0,1,.431.468.534.534,0,0,1-.543.468Z" transform="translate(-111.115 -106.907)" fill="#e0e0e0"/>
      <path id="Path_1190" data-name="Path 1190" d="M383.586,236.147H130.041a.431.431,0,0,1-.431-.468.525.525,0,0,1,.515-.468H383.67a.422.422,0,0,1,.431.468.534.534,0,0,1-.515.468Z" transform="translate(-111.285 -104.951)" fill="#e0e0e0"/>
      <path id="Path_1191" data-name="Path 1191" d="M386.286,205.207H132.741a.422.422,0,0,1-.431-.468.534.534,0,0,1,.515-.468H386.37a.422.422,0,0,1,.422.468.506.506,0,0,1-.506.468Z" transform="translate(-111.456 -102.994)" fill="#e0e0e0"/>
      <path id="Path_1192" data-name="Path 1192" d="M388.986,174.277H135.441a.422.422,0,0,1-.431-.468.515.515,0,0,1,.506-.468H389.07a.412.412,0,0,1,.422.468A.506.506,0,0,1,388.986,174.277Z" transform="translate(-111.627 -101.039)" fill="#e0e0e0"/>
      <path id="Path_1193" data-name="Path 1193" d="M361.471,288.227a.412.412,0,0,1-.422-.468l12.637-144.88a.515.515,0,0,1,.506-.468.422.422,0,0,1,.431.468l-12.637,144.88A.525.525,0,0,1,361.471,288.227Z" transform="translate(-125.92 -99.083)" fill="#e0e0e0"/>
      <path id="Path_1194" data-name="Path 1194" d="M327.641,288.227a.422.422,0,0,1-.431-.468l12.637-144.88a.525.525,0,0,1,.515-.468.412.412,0,0,1,.422.468l-12.637,144.88a.506.506,0,0,1-.506.468Z" transform="translate(-123.78 -99.083)" fill="#e0e0e0"/>
      <path id="Path_1195" data-name="Path 1195" d="M293.811,288.227a.422.422,0,0,1-.431-.468l12.637-144.88a.525.525,0,0,1,.515-.468.412.412,0,0,1,.422.468l-12.637,144.88A.515.515,0,0,1,293.811,288.227Z" transform="translate(-121.641 -99.083)" fill="#e0e0e0"/>
      <path id="Path_1196" data-name="Path 1196" d="M259.971,288.227a.422.422,0,0,1-.431-.468l12.609-144.88a.515.515,0,0,1,.506-.468.422.422,0,0,1,.431.468l-12.6,144.88a.515.515,0,0,1-.515.468Z" transform="translate(-119.501 -99.083)" fill="#e0e0e0"/>
      <path id="Path_1197" data-name="Path 1197" d="M226.141,288.227a.412.412,0,0,1-.422-.468l12.637-144.88a.506.506,0,0,1,.506-.468.422.422,0,0,1,.431.468l-12.637,144.88a.525.525,0,0,1-.515.468Z" transform="translate(-117.363 -99.083)" fill="#e0e0e0"/>
      <path id="Path_1198" data-name="Path 1198" d="M192.311,288.227a.421.421,0,0,1-.431-.468l12.637-144.88a.525.525,0,0,1,.515-.468.412.412,0,0,1,.422.468l-12.637,144.88a.506.506,0,0,1-.506.468Z" transform="translate(-115.223 -99.083)" fill="#e0e0e0"/>
      <path id="Path_1199" data-name="Path 1199" d="M158.481,288.227a.421.421,0,0,1-.431-.468l12.637-144.88a.525.525,0,0,1,.515-.468.412.412,0,0,1,.422.468l-12.637,144.88A.515.515,0,0,1,158.481,288.227Z" transform="translate(-113.084 -99.083)" fill="#e0e0e0"/>
      <path id="Path_1200" data-name="Path 1200" d="M294.178,200.115H274.815a2.7,2.7,0,0,1-2.726-3l1.5-17.19a3.325,3.325,0,0,1,3.251-3H296.2a2.7,2.7,0,0,1,2.735,3l-1.5,17.19A3.325,3.325,0,0,1,294.178,200.115Z" transform="translate(-120.294 -101.266)" fill="#ff4a23"/>
      <path id="Path_1201" data-name="Path 1201" d="M294.178,200.115H274.815a2.7,2.7,0,0,1-2.726-3l1.5-17.19a3.325,3.325,0,0,1,3.251-3H296.2a2.7,2.7,0,0,1,2.735,3l-1.5,17.19A3.325,3.325,0,0,1,294.178,200.115Z" transform="translate(-120.294 -101.266)" fill="#fff" opacity="0.6"/>
      <path id="Path_1202" data-name="Path 1202" d="M438.516,200.115H418.16l2.014-23.185h20.365l-7.653,11.6Z" transform="translate(-129.532 -101.266)" fill="#fff"/>
      <path id="Path_1203" data-name="Path 1203" d="M439.24,200.552H417.61l2.108-24.122h21.677L433.441,188.5Zm-20.609-.937h19.082L432.308,188.5l7.344-11.129H420.57Z" transform="translate(-129.497 -101.234)" fill="#ff4a23"/>
      <path id="Path_1204" data-name="Path 1204" d="M358.947,231.046H339.584a2.7,2.7,0,0,1-2.735-2.988l1.5-17.2a3.335,3.335,0,0,1,3.26-2.988h19.363a2.707,2.707,0,0,1,2.735,2.988l-1.5,17.2A3.335,3.335,0,0,1,358.947,231.046Z" transform="translate(-124.389 -103.222)" fill="#ff4a23"/>
      <path id="Path_1205" data-name="Path 1205" d="M358.947,231.046H339.584a2.7,2.7,0,0,1-2.735-2.988l1.5-17.2a3.335,3.335,0,0,1,3.26-2.988h19.363a2.707,2.707,0,0,1,2.735,2.988l-1.5,17.2A3.335,3.335,0,0,1,358.947,231.046Z" transform="translate(-124.389 -103.222)" fill="#fff" opacity="0.4"/>
      <path id="Path_1206" data-name="Path 1206" d="M396.394,169.185h-51.41a2.7,2.7,0,0,1-2.735-3l1.5-17.19A3.325,3.325,0,0,1,347,146h51.419a2.707,2.707,0,0,1,2.735,3l-1.5,17.19A3.326,3.326,0,0,1,396.394,169.185Z" transform="translate(-124.731 -99.31)" fill="#ff4a23"/>
      <path id="Path_1207" data-name="Path 1207" d="M179.493,194.509c-7.813,0-14.323-2.763-18.941-8.056-5.93-6.81-6.82-15.26-2.333-22.061,6.66-10.07,24.019-15.438,35.438-13.948a.431.431,0,0,1,.365.525.525.525,0,0,1-.562.4c-11.138-1.452-28.019,3.747-34.464,13.489-5.077,7.681-2.145,15.85,2.3,20.946,6.192,7.1,14.632,8.1,20.609,7.681,11.419-.8,23.925-7.326,31.129-16.244,2.014-2.492,5.105-7.279,3.213-11.241-2.81-5.93-12.178-5.518-19.991-4.506a.431.431,0,0,1-.487-.4.515.515,0,0,1,.45-.525c5.227-.684,17.461-2.267,20.881,4.984,2.117,4.459-1.2,9.611-3.354,12.29-7.372,9.124-20.178,15.813-31.85,16.618C181.085,194.481,180.317,194.509,179.493,194.509Z" transform="translate(-112.915 -99.575)" fill="#ff4a23"/>
      <path id="Path_1208" data-name="Path 1208" d="M347.664,226.3h-.075a.834.834,0,0,1-.693-.468,21.7,21.7,0,0,0-3.925-6.014.977.977,0,1,1,1.377-1.386,20.487,20.487,0,0,1,3.682,5.33,83.457,83.457,0,0,1,10.426-9.068.9.9,0,1,1,1.04,1.471,79.523,79.523,0,0,0-11.082,9.808,1.021,1.021,0,0,1-.749.328Z" transform="translate(-124.759 -103.641)" fill="#fff"/>
      <path id="Path_1209" data-name="Path 1209" d="M310.518,291.91a9.5,9.5,0,0,1-9.6-10.52,11.71,11.71,0,0,1,11.438-10.51,9.489,9.489,0,0,1,9.6,10.51,11.719,11.719,0,0,1-11.438,10.52Zm1.714-19.157a9.63,9.63,0,0,0-9.368,8.637,7.8,7.8,0,0,0,7.888,8.646,9.639,9.639,0,0,0,9.368-8.646,7.813,7.813,0,0,0-7.888-8.637Z" transform="translate(-122.115 -107.206)" fill="#ff4a23"/>
      <path id="Path_1210" data-name="Path 1210" d="M214.348,229.93a9.5,9.5,0,0,1-9.6-10.52,11.719,11.719,0,0,1,11.475-10.52,9.5,9.5,0,0,1,9.6,10.52,11.728,11.728,0,0,1-11.475,10.52Zm1.667-19.166a9.63,9.63,0,0,0-9.368,8.646,7.8,7.8,0,0,0,7.888,8.646,9.639,9.639,0,0,0,9.368-8.646,7.813,7.813,0,0,0-7.869-8.646Z" transform="translate(-116.033 -103.286)" fill="#ff4a23"/>
    </g>
    <g id="freepik--Character--inject-2" transform="translate(69.374 141.209)">
      <path id="Path_1211" data-name="Path 1211" d="M227.535,257.291h-97.33a6.351,6.351,0,0,1-6.407-7.026h0a7.841,7.841,0,0,1,7.635-7.026h97.33a6.351,6.351,0,0,1,6.407,7.026h0a7.841,7.841,0,0,1-7.635,7.026Z" transform="translate(-72.813 -150.51)" opacity="0.1"/>
      <path id="Path_1212" data-name="Path 1212" d="M96.167,234.41l3.653,1.564-4.9,6a20.731,20.731,0,0,1-1.986-4.74,1.874,1.874,0,0,1,1.358-2.333Z" transform="translate(-70.859 -149.951)" fill="#ff8b7b"/>
      <path id="Path_1213" data-name="Path 1213" d="M101.636,242.565,99.444,245a1.63,1.63,0,0,1-2.567-.178l-1.817-2.7,4.9-6,1.977,4.684a1.621,1.621,0,0,1-.3,1.761Z" transform="translate(-70.998 -150.06)" fill="#ff8b7b"/>
      <path id="Path_1214" data-name="Path 1214" d="M230.687,254.1l-126.7-10.042a6.361,6.361,0,0,1-5.836-7.494h0a7.841,7.841,0,0,1,8.169-6.4l126.7,10.033a6.351,6.351,0,0,1,5.836,7.494h0A7.85,7.85,0,0,1,230.687,254.1Z" transform="translate(-71.187 -149.682)" fill="#ff4a23"/>
      <path id="Path_1215" data-name="Path 1215" d="M143.631,192.61c1.583,3.569,3.2,7.232,4.843,10.792s3.335,7.176,5.152,10.3a16.923,16.923,0,0,0,1.283,1.874c.562.665,1.19,1.349,1.827,2.052,1.3,1.4,2.7,2.81,4.094,4.2,2.81,2.81,5.621,5.621,8.431,8.553l-2.81,3.663a116.159,116.159,0,0,1-10.3-6.689c-1.667-1.208-3.3-2.464-4.927-3.831-.815-.684-1.621-1.415-2.445-2.211a23,23,0,0,1-2.351-2.895,94.019,94.019,0,0,1-6.3-10.979c-1.827-3.7-3.5-7.382-5.068-11.241Z" transform="translate(-73.527 -147.308)" fill="#ff8b7b"/>
      <path id="Path_1216" data-name="Path 1216" d="M109.626,191.66c-2.126,3.475-4.309,6.97-6.492,10.426l-6.511,10.379-.8,1.293-.094.169V214h0v.056a1.528,1.528,0,0,0-.122.225,7.428,7.428,0,0,0-.393,1.948,30.838,30.838,0,0,0,.159,5.433c.4,3.822,1.162,7.859,1.967,11.766L93,235.041a61.124,61.124,0,0,1-4.684-12.066,31.709,31.709,0,0,1-1.1-6.866,14.988,14.988,0,0,1,.393-4.178c.131-.412.234-.787.412-1.227l.29-.637.122-.253.084-.169.721-1.415c1.874-3.747,3.944-7.382,6.033-10.979s4.262-7.129,6.557-10.632Z" transform="translate(-70.502 -146.93)" fill="#ff8b7b"/>
      <path id="Path_1217" data-name="Path 1217" d="M137.595,164.266c-.169.459-.066.937.234,1.068s.684-.15.862-.618.066-.937-.234-1.068S137.773,163.8,137.595,164.266Z" transform="translate(-73.683 -145.475)" fill="#0b155a"/>
      <path id="Path_1218" data-name="Path 1218" d="M137.369,165.3a18.79,18.79,0,0,0,.712,4.9,2.81,2.81,0,0,1-2.351-.5Z" transform="translate(-73.57 -145.581)" fill="#ff5652"/>
      <path id="Path_1219" data-name="Path 1219" d="M139.257,161.31a.3.3,0,0,1-.159-.084,2.286,2.286,0,0,0-2.042-.44.29.29,0,1,1-.141-.562,2.857,2.857,0,0,1,2.585.581.3.3,0,0,1-.244.506Z" transform="translate(-73.631 -145.254)" fill="#0b155a"/>
      <path id="Path_1220" data-name="Path 1220" d="M119.163,165.29c-.59,5.04.375,11.391-3.073,13.92,0,0,.721,4.684,9.012,5.967,9.115,1.349,4.852-3.906,4.852-3.906-4.843-1.939-4.309-5.621-3.063-8.984Z" transform="translate(-72.328 -145.581)" fill="#ff8b7b"/>
      <path id="Path_1221" data-name="Path 1221" d="M113,183.092c-.122-2.323,0-5.827,1.443-6.333,1.574-.553,10.876.187,15.541,4.412a14.745,14.745,0,0,0-1.592,6.8Z" transform="translate(-72.13 -146.296)" fill="#0b155a"/>
      <path id="Path_1222" data-name="Path 1222" d="M82.4,406.474a6.427,6.427,0,0,1-2.417-.693.15.15,0,0,1-.084-.141.141.141,0,0,1,.094-.122c.084,0,1.958-.749,2.81-.347a.731.731,0,0,1,.384.45.59.59,0,0,1-.141.684A.937.937,0,0,1,82.4,406.474Zm-1.977-.806c.862.384,2.089.684,2.417.412,0,0,.131-.1,0-.375a.45.45,0,0,0-.234-.272,3.944,3.944,0,0,0-2.183.234Z" transform="translate(-70.04 -160.742)" fill="#ff4a23"/>
      <path id="Path_1223" data-name="Path 1223" d="M80.052,405.685a.15.15,0,0,1-.1-.047.131.131,0,0,1,0-.14c0-.075.525-1.78,1.349-2.183a.777.777,0,0,1,.646,0,.478.478,0,0,1,.365.5c0,.7-1.508,1.714-2.183,1.874Zm1.574-2.164a.581.581,0,0,0-.244.056,3.419,3.419,0,0,0-1.1,1.724c.7-.319,1.667-1.115,1.7-1.536a.238.238,0,0,0-.178-.206A.431.431,0,0,0,81.625,403.521Z" transform="translate(-70.042 -160.628)" fill="#ff4a23"/>
      <path id="Path_1224" data-name="Path 1224" d="M132.707,409.38a10.391,10.391,0,0,1-1.874-.178.141.141,0,0,1,0-.262c.309-.187,3.044-1.752,3.7-.665a.562.562,0,0,1,0,.646A2.6,2.6,0,0,1,132.707,409.38Zm-1.433-.393c1.162.169,2.726.141,2.988-.234a.355.355,0,0,0,0-.328C133.85,407.806,132.183,408.508,131.274,408.986Z" transform="translate(-73.255 -160.922)" fill="#ff4a23"/>
      <path id="Path_1225" data-name="Path 1225" d="M130.83,409.113a.1.1,0,0,1-.075,0,.141.141,0,0,1-.066-.131,4.028,4.028,0,0,1,.862-2.379,1.1,1.1,0,0,1,.806-.253c.412.047.534.253.562.422.112.712-1.283,2.014-2.023,2.351Zm1.415-2.5a.787.787,0,0,0-.506.187,3.307,3.307,0,0,0-.731,1.874c.74-.459,1.7-1.489,1.621-1.92,0,0,0-.15-.3-.178Z" transform="translate(-73.251 -160.824)" fill="#ff4a23"/>
      <path id="Path_1226" data-name="Path 1226" d="M123.61,408.176h6.164l.066-14.286h-6.173Z" transform="translate(-72.804 -160.036)" fill="#ff8b7b"/>
      <path id="Path_1227" data-name="Path 1227" d="M72.61,403.466l5.78,1.34,4.852-14.126-5.78-1.34Z" transform="translate(-69.579 -159.748)" fill="#ff8b7b"/>
      <path id="Path_1228" data-name="Path 1228" d="M79.085,404.713,72.368,403a.506.506,0,0,0-.6.281l-2.314,5.068a.937.937,0,0,0,.646,1.293c2.361.553,3.532.7,6.482,1.443,1.817.459,5.527,1.592,8.037,2.22s3.363-1.8,2.379-2.276c-4.393-2.183-5.827-4.019-7.026-5.733A1.555,1.555,0,0,0,79.085,404.713Z" transform="translate(-69.374 -160.611)" fill="#0b155a"/>
      <path id="Path_1229" data-name="Path 1229" d="M129.562,408.38h-6.735a.525.525,0,0,0-.515.422l-1,5.48a.937.937,0,0,0,.937,1.1c2.426,0,5.93-.178,8.984-.178,3.578,0,3.644.187,7.831.187,2.529,0,3.138-2.557,2.07-2.81-4.871-1.049-5.789-1.162-10.061-3.747a2.923,2.923,0,0,0-1.508-.45Z" transform="translate(-72.657 -160.952)" fill="#0b155a"/>
      <path id="Path_1230" data-name="Path 1230" d="M107.426,179.7c-5.864.468-14.136,15.176-14.136,15.176l10.623,9.621a94.182,94.182,0,0,0,9-11.841C117.084,185.975,113.421,179.221,107.426,179.7Z" transform="translate(-70.886 -146.49)" fill="#ff4a23"/>
      <path id="Path_1231" data-name="Path 1231" d="M107.426,179.7c-5.864.468-14.136,15.176-14.136,15.176l10.623,9.621a94.182,94.182,0,0,0,9-11.841C117.084,185.975,113.421,179.221,107.426,179.7Z" transform="translate(-70.886 -146.49)" fill="#fff" opacity="0.6"/>
      <path id="Path_1232" data-name="Path 1232" d="M111.106,191l-7.016,13.733.5.459s2.717-2.97,5.742-7.063Z" transform="translate(-71.569 -147.206)" opacity="0.2"/>
      <path id="Path_1233" data-name="Path 1233" d="M137.189,212.673c-1.059,6.8-2.735,15.213-5.311,25.574L99.25,233.376c.3-4.684,5.293-25.564,4.309-47.981a5.452,5.452,0,0,1,5.564-5.7c1.611,0,3.382.122,5.124.29a124.032,124.032,0,0,1,13.874,2.061,62.914,62.914,0,0,1,9.2,3.1s2.342,3.438,1.077,17.742C138.145,205.723,137.76,208.954,137.189,212.673Z" transform="translate(-71.263 -146.491)" fill="#ff4a23"/>
      <path id="Path_1234" data-name="Path 1234" d="M137.189,212.673c-1.059,6.8-2.735,15.213-5.311,25.574L99.25,233.376c.3-4.684,5.293-25.564,4.309-47.981a5.452,5.452,0,0,1,5.564-5.7c1.611,0,3.382.122,5.124.29a124.032,124.032,0,0,1,13.874,2.061,62.914,62.914,0,0,1,9.2,3.1s2.342,3.438,1.077,17.742C138.145,205.723,137.76,208.954,137.189,212.673Z" transform="translate(-71.263 -146.491)" fill="#fff" opacity="0.6"/>
      <path id="Path_1235" data-name="Path 1235" d="M139.46,213.994c-2.651-1.677-5.133-9.368-4.019-13.424l5.227,3.653C140.416,207.043,140.032,210.275,139.46,213.994Z" transform="translate(-73.535 -147.812)" opacity="0.2"/>
      <path id="Path_1236" data-name="Path 1236" d="M131.907,189.692c-1.686,5.621,8.525,22.173,8.525,22.173l12.178-6.37a69.143,69.143,0,0,0-7.157-14.763C140.572,183.547,133.856,183.34,131.907,189.692Z" transform="translate(-73.316 -146.835)" fill="#ff4a23"/>
      <path id="Path_1237" data-name="Path 1237" d="M131.907,189.692c-1.686,5.621,8.525,22.173,8.525,22.173l12.178-6.37a69.143,69.143,0,0,0-7.157-14.763C140.572,183.547,133.856,183.34,131.907,189.692Z" transform="translate(-73.316 -146.835)" fill="#fff" opacity="0.6"/>
      <path id="Path_1238" data-name="Path 1238" d="M129.832,393.9l-.028,7.363H123.64l.028-7.363Z" transform="translate(-72.806 -160.037)" opacity="0.2"/>
      <path id="Path_1239" data-name="Path 1239" d="M77.621,389.35l5.78,1.33-2.511,7.288-5.77-1.34Z" transform="translate(-69.737 -159.749)" opacity="0.2"/>
      <path id="Path_1240" data-name="Path 1240" d="M121.5,156.044c-1.789,5.874-3.129,9.208-1.368,13.33a7.953,7.953,0,0,0,14.051,1.33c3.129-4.684,5.527-13.471.852-18.051a8.037,8.037,0,0,0-13.536,3.391Z" transform="translate(-72.532 -144.625)" fill="#ff8b7b"/>
      <path id="Path_1241" data-name="Path 1241" d="M130.712,162.124c-.7,3.007-2.529,8.431-7.026,9.059-2.511.347-6.689-.393-7.073-2.417s1.171-1.752.778-3.41-2.445-7.494-.112-11.578c-3.241.272-1.021-4.534,4.8-5.621-1.8-.7-.937-5.621,8.037-3.279,4.2,1.077,7.316,2.726,7.691,4.984,3.822,1.611,4.834,5.667,2.464,7.148s-5.8-.187-5.8-.187S136.089,165.4,130.712,162.124Z" transform="translate(-72.309 -144.25)" fill="#0b155a"/>
      <path id="Path_1242" data-name="Path 1242" d="M129.109,162.695a5.546,5.546,0,0,0,1.162,3.747c1.115,1.424,1.489,1.433,1.948-.15.422-1.424,1.443-4.609-.047-5.452S129.24,161.055,129.109,162.695Z" transform="translate(-73.151 -145.281)" fill="#ff8b7b"/>
      <path id="Path_1243" data-name="Path 1243" d="M118.649,240.149s-5.068,48.375-8.178,66.023c-3.466,19.335-26.492,81.5-26.492,81.5L73,384.954c5.621-21.546,13.948-61.667,19.016-77.03,3.822-23.354,0-52.712,5.621-70.9Z" transform="translate(-69.603 -150.117)" fill="#0b155a"/>
      <path id="Path_1244" data-name="Path 1244" d="M86.481,393.805l-2.023,3.963-12.328-3.1,1.021-3.747Z" transform="translate(-69.548 -159.848)" fill="#ff4a23"/>
      <path id="Path_1245" data-name="Path 1245" d="M117.993,260.5a2.708,2.708,0,0,1,1.059,0c-1.621,14.445-3.925,33.724-5.742,44.787C111.792,289.208,110.386,262,117.993,260.5Z" transform="translate(-72.077 -151.598)" opacity="0.2"/>
      <path id="Path_1246" data-name="Path 1246" d="M132.633,241.987s2.557,51.691,2.932,70.492c.384,19.56-4.3,77.555-4.3,77.555H120.811s-3.944-53.78-1.817-80.009c-2.52-19.981-7.8-71.194-7.8-71.194Z" transform="translate(-72.018 -150.231)" fill="#0b155a"/>
      <path id="Path_1247" data-name="Path 1247" d="M173.943,232.3a11.363,11.363,0,0,0-5,.712l-.759,1.255a1.92,1.92,0,0,0,1.068,2.81l3.663,1.171,1.789.543a1.874,1.874,0,0,0,2.08-.7l.768-1.068a1.874,1.874,0,0,0-.272-2.511l-1.649-1.489a2.913,2.913,0,0,0-1.686-.721Z" transform="translate(-75.605 -149.815)" fill="#ff8b7b"/>
      <path id="Path_1248" data-name="Path 1248" d="M133.671,395.79l-.422,4.337H120.537l-.487-3.869Z" transform="translate(-72.579 -160.156)" fill="#ff4a23"/>
    </g>
  </g>
</svg>
