<svg xmlns="http://www.w3.org/2000/svg" width="8.368" height="11.758" viewBox="0 0 8.368 11.758">
  <g id="_2._Forms_1._Inputs_1._Large_5._Overrides_Right_Selector" data-name="2. Forms/1. Inputs/1. Large/5. Overrides/Right/Selector" transform="translate(-12.314 -18.121)">
    <path id="_Icon_Color" data-name="🔹 Icon Color" d="M4.187,11.758a2.753,2.753,0,0,1-1.8-.672l-.138-.127L.625,9.354C.11,8.844-.1,8.365.042,8c.132-.339.562-.541,1.211-.567l.151,0H6.967c.715,0,1.194.195,1.348.549.146.336-.018.784-.463,1.262l-.106.109L6.125,10.959A2.738,2.738,0,0,1,4.187,11.758Zm2.78-7.434H1.4c-.728,0-1.21-.2-1.358-.559S.1,2.92.625,2.4L2.246.8A2.754,2.754,0,0,1,6.125.8L7.746,2.4c.519.514.723,1,.573,1.36S7.691,4.324,6.967,4.324Z" transform="translate(12.314 18.121)" fill="#0b155a"/>
  </g>
</svg>
