<svg xmlns="http://www.w3.org/2000/svg" width="380" height="248.502" viewBox="0 0 380 248.502">
  <g id="Add_User-rafiki" data-name="Add User-rafiki" transform="translate(-55.634 -119.615)">
    <g id="freepik--Window--inject-2" transform="translate(55.634 119.615)">
      <path id="Path_1058" data-name="Path 1058" d="M52.3,112.791a5.559,5.559,0,0,1,5.541-5.541H305.1a5.559,5.559,0,0,1,5.541,5.541v17.833H52.3Z" transform="translate(-52.3 -107.25)" fill="#0b155a"/>
      <path id="Path_1059" data-name="Path 1059" d="M102.447,124.543a4.677,4.677,0,1,1,4.677-4.677A4.677,4.677,0,0,1,102.447,124.543Zm0-8.374a3.7,3.7,0,1,0,3.7,3.7A3.7,3.7,0,0,0,102.447,116.169Z" transform="translate(-57.649 -108.184)" fill="#f0f0f0"/>
      <path id="Path_1060" data-name="Path 1060" d="M85.618,124.543a4.677,4.677,0,1,1,3.313-1.367,4.677,4.677,0,0,1-3.313,1.367Zm0-8.374a3.7,3.7,0,1,0,3.706,3.7A3.7,3.7,0,0,0,85.618,116.169Z" transform="translate(-55.67 -108.184)" fill="#f0f0f0"/>
      <path id="Path_1061" data-name="Path 1061" d="M68.8,124.543a4.677,4.677,0,1,1,3.313-1.367,4.677,4.677,0,0,1-3.313,1.367Zm0-8.374a3.7,3.7,0,1,0,3.7,3.7A3.7,3.7,0,0,0,68.8,116.169Z" transform="translate(-53.692 -108.184)" fill="#f0f0f0"/>
      <path id="Path_1062" data-name="Path 1062" d="M305.1,303.887H57.841a5.559,5.559,0,0,1-5.541-5.541V133.74H310.639V298.345a5.559,5.559,0,0,1-5.541,5.541Z" transform="translate(-52.3 -110.366)" fill="#ff4a23"/>
      <rect id="Rectangle_17417" data-name="Rectangle 17417" width="255.198" height="145.882" transform="translate(1.571 28.112)" fill="#fff"/>
      <rect id="Rectangle_17418" data-name="Rectangle 17418" width="103.934" height="19.703" rx="3.81" transform="translate(14.074 40.615)" fill="#ff4a23"/>
      <path id="Path_1063" data-name="Path 1063" d="M311.912,154.162a2.479,2.479,0,0,1,2.479,2.479v12.98a2.479,2.479,0,0,1-2.479,2.479H214.7a2.479,2.479,0,0,1-2.48-2.479v-12.98a2.479,2.479,0,0,1,2.48-2.479h97.21m0-.882H214.7a3.371,3.371,0,0,0-3.362,3.362v12.98a3.362,3.362,0,0,0,3.362,3.362h97.21a3.362,3.362,0,0,0,3.362-3.362v-12.98A3.371,3.371,0,0,0,311.912,153.28Z" transform="translate(-71.008 -112.665)" fill="#ff4a23"/>
      <path id="Path_1064" data-name="Path 1064" d="M85.527,185.492a16.394,16.394,0,1,1-16.394,16.394,16.394,16.394,0,0,1,16.394-16.394m0-.882A17.277,17.277,0,1,0,102.8,201.887,17.277,17.277,0,0,0,85.527,184.61Z" transform="translate(-54.176 -116.35)" fill="#ff4a23"/>
      <path id="Path_1065" data-name="Path 1065" d="M98.658,211.383a14.259,14.259,0,0,1-25.068,0A22.553,22.553,0,0,1,98.658,211.383Z" transform="translate(-54.804 -119.052)" fill="#ff4a23" opacity="0.4"/>
      <circle id="Ellipse_453" data-name="Ellipse 453" cx="6.353" cy="6.353" r="6.353" transform="translate(24.997 74.304)" fill="#ff4a23" opacity="0.4"/>
      <path id="Path_1066" data-name="Path 1066" d="M295.457,211.892H127.3a8.885,8.885,0,0,1-8.885-8.885h0a8.877,8.877,0,0,1,8.885-8.877H295.457a8.877,8.877,0,0,1,8.885,8.877h0A8.885,8.885,0,0,1,295.457,211.892Z" transform="translate(-60.077 -117.47)" fill="#ff4a23" opacity="0.4"/>
      <path id="Path_1067" data-name="Path 1067" d="M85.527,238.882a16.394,16.394,0,1,1-16.394,16.394,16.394,16.394,0,0,1,16.394-16.394m0-.882A17.277,17.277,0,1,0,102.8,255.277,17.277,17.277,0,0,0,85.527,238Z" transform="translate(-54.176 -122.631)" fill="#ff4a23"/>
      <path id="Path_1068" data-name="Path 1068" d="M98.658,264.714a14.259,14.259,0,0,1-25.068,0A22.6,22.6,0,0,1,98.658,264.714Z" transform="translate(-54.804 -125.327)" fill="#ff4a23" opacity="0.4"/>
      <circle id="Ellipse_454" data-name="Ellipse 454" cx="6.353" cy="6.353" r="6.353" transform="translate(24.997 121.37)" fill="#ff4a23" opacity="0.4"/>
      <path id="Path_1069" data-name="Path 1069" d="M127.3,247.46H295.457a8.885,8.885,0,0,1,8.885,8.885h0a8.885,8.885,0,0,1-8.885,8.885H127.3a8.885,8.885,0,0,1-8.885-8.885h0a8.877,8.877,0,0,1,8.877-8.877Z" transform="translate(-60.077 -123.743)" fill="#ff4a23" opacity="0.4"/>
      <path id="Path_1070" data-name="Path 1070" d="M270.167,256.594a82.513,82.513,0,0,0,1.582,16.089A33.159,33.159,0,0,0,255.52,301.11a32.8,32.8,0,0,0,.882,7.782H329a5.559,5.559,0,0,0,5.541-5.541V176.29A82.351,82.351,0,0,0,270.167,256.594Z" transform="translate(-76.205 -115.371)" opacity="0.1"/>
    </g>
    <g id="freepik--Character--inject-2" transform="translate(228.015 160.498)">
      <circle id="Ellipse_455" data-name="Ellipse 455" cx="73.404" cy="73.404" r="73.404" transform="translate(0 103.81) rotate(-45)" fill="#ff4a23"/>
      <circle id="Ellipse_456" data-name="Ellipse 456" cx="66.919" cy="66.919" r="66.919" transform="translate(9.514 103.718) rotate(-45)" fill="#fff"/>
      <path id="Path_1071" data-name="Path 1071" d="M336.914,220.25l-4.271,5.471s-3.75,2.841-5.171,5.294c-1.659,1.641-3.176,3.327-4.677,5.1a70.114,70.114,0,0,0-4.8,6.362,36.923,36.923,0,0,0-3.988,7.58,16.023,16.023,0,0,0-1.068,5.294,9.823,9.823,0,0,0,.671,3.75,8.824,8.824,0,0,0,2.8,3.706l.935.706,1.4.265a47.28,47.28,0,0,0,8.4.829l1.112-.1-1.147-11.188c-.944,0-2.974.185-3.9.168a2.269,2.269,0,0,1,.115-.529,33.359,33.359,0,0,1,2.294-6.177c.988-2.144,2.126-4.288,3.309-6.424,1.041-1.888,2.162-3.785,3.247-5.638l5.294-3.335,3.1-5.5ZM323.14,255.1a1.475,1.475,0,0,1,0-.256.671.671,0,0,1,.079.2C323.246,255.262,323.184,255.271,323.14,255.1Z" transform="translate(-255.341 -161.425)" fill="#ffc3bd"/>
      <path id="Path_1072" data-name="Path 1072" d="M372.063,233.4c.132-.679-4.509-3.009-7.7-1.112-2.762,1.641-3.115,3.882-2.109,6.556a4.082,4.082,0,0,0,.1.556c.062.432.115.882.141,1.288.2,2.815-.538,5.435-3.706,6.927,0,.176-.432.362-.573.485a6.308,6.308,0,0,0-2.1,4.015c0,1.147,1.085,2.056,2.347,3.15l1.765,1.191,2.418-.229c7.421-2.179,10.888-8.956,10.73-9.459C371.463,243.631,371.49,238.125,372.063,233.4Z" transform="translate(-260.419 -162.756)" fill="#ffc3bd"/>
      <path id="Path_1073" data-name="Path 1073" d="M384.759,251.519l-1.341-.229c-1.765-.282-9.635-2.065-13.438-2.4h0c-.882,1.879-3.777,6.468-11.2,8.647l-1.835.432-1.765-.882a4.676,4.676,0,0,1-1.924-3.388,5.02,5.02,0,0,1,1.924-3.529.584.584,0,0,0,.15-.2V249.6c-.556.071-7.6,1.138-8.188,1.235a114.694,114.694,0,0,0-19.474,5.409l.071.635,1.279,11.109.476,4.209s3.53-.4,8.162-1.209c-1.262,11.241-1.509,27.53,2.347,48.468l15.062-.282,26.171-.485c.106-1.765-.088-5.418-.273-10.412l-.238-7.712c-.141-6.812-.115-15,.494-23.753.1-1.385.212-2.779.335-4.191h0c5.347,5.78,10.7,11.3,10.7,11.3l2.532-2.435c3.238-1.562,5.788-4.359,8.012-7.721l2.974-2.868S391.995,252.737,384.759,251.519Z" transform="translate(-257.073 -164.794)" fill="#ff4a23"/>
      <path id="Path_1074" data-name="Path 1074" d="M384.16,270.64a13.156,13.156,0,0,0,1.721,5.206l2.029,3.476c.1-1.385.212-2.779.335-4.191C386.851,273.6,385.457,272.1,384.16,270.64Z" transform="translate(-263.719 -167.353)" opacity="0.3"/>
      <path id="Path_1075" data-name="Path 1075" d="M388.755,275.74h0c-.124,1.412-.238,2.806-.335,4.191h0C388.508,278.546,388.632,277.143,388.755,275.74Z" transform="translate(-264.22 -167.953)" opacity="0.3"/>
      <path id="Path_1076" data-name="Path 1076" d="M363.07,239.82a3.058,3.058,0,0,0,.1.556A3.063,3.063,0,0,0,363.07,239.82Z" transform="translate(-261.238 -163.728)" fill="#7f3e3b"/>
      <path id="Path_1077" data-name="Path 1077" d="M363.321,241.738a8.854,8.854,0,0,0-.141-1.288C363.242,240.882,363.295,241.315,363.321,241.738Z" transform="translate(-261.251 -163.802)" opacity="0.2"/>
      <path id="Path_1079" data-name="Path 1079" d="M377.1,250.147a1.968,1.968,0,0,0-1.465-1.5l-1.835-.441a1.094,1.094,0,0,0-1.2.521l-.062.079c-.882,1.879-3.776,6.468-11.2,8.647l-.573.132h0l-1.262.3L357.741,257a4.677,4.677,0,0,1-1.924-3.388,5.021,5.021,0,0,1,1.924-3.529,1.9,1.9,0,0,0,.256-.326c.079-.2.062-.3-.079-.388-1.95-1.4-6.309.759-6.485,1.129-.185.185-.37.379-.556.6a6.115,6.115,0,0,0-1.412,4.676,9.432,9.432,0,0,0,4.474,6.847.2.2,0,0,0,.124,0,.255.255,0,0,0,.141,0,.291.291,0,0,0,.123-.238,5.294,5.294,0,0,1,3.265-4.871l1.544.829c-6.635,27.23-2.135,59.869-2.012,60.751h.512c0-.335-4.677-33.256,2.012-60.636l1.615-.388c1.879,2.294.988,5.7.979,5.735a.264.264,0,0,0,.079.265.273.273,0,0,0,.176.062.175.175,0,0,0,.1,0c.353-.159,8.7-3.812,11.621-7.3a13.941,13.941,0,0,0,2.841-5.735,1.869,1.869,0,0,0,.044-.953Z" transform="translate(-259.632 -164.711)" fill="#fff"/>
      <path id="Path_1080" data-name="Path 1080" d="M368.8,237.45c-.176.124-.344.256-.529.379a10.183,10.183,0,0,1-5.2,1.712,3.055,3.055,0,0,0,.1.556c.062.432.115.882.141,1.288v.079A8.894,8.894,0,0,0,368.8,237.45Z" transform="translate(-261.238 -163.449)" opacity="0.2"/>
      <path id="Path_1081" data-name="Path 1081" d="M356.713,214.46c3.45-4.412,1.262-7.059-.2-6.812-1.385.653-2.7,2.5-3.379,6.627a10.427,10.427,0,0,0-.071,2.947C354.481,217.151,356.713,214.46,356.713,214.46Z" transform="translate(-260.052 -159.941)" fill="#0b155a"/>
      <path id="Path_1082" data-name="Path 1082" d="M370.989,224.184c9.556-16.809-9.318-18.768-13.165-15a16.367,16.367,0,0,0-3.238,4.165l-.8,1.579a24.134,24.134,0,0,0-.883,2.285,27.033,27.033,0,0,0-1.5,8.674,10.095,10.095,0,0,0,10.324,10.138h0a10.184,10.184,0,0,0,5.2-1.712c.185-.124.353-.256.529-.379a12.051,12.051,0,0,0,3.168-3.335C372.577,227.431,372.065,225.834,370.989,224.184Z" transform="translate(-259.865 -159.933)" fill="#ffc3bd"/>
      <path id="Path_1083" data-name="Path 1083" d="M353.54,215.121a.371.371,0,0,0,.062.512.38.38,0,0,0,.23.079.326.326,0,0,0,.194-.071.22.22,0,0,0,.088-.071,3.053,3.053,0,0,1,2.409-1.209.371.371,0,0,0,.388-.344.362.362,0,0,0-.335-.388,3.723,3.723,0,0,0-1.765.432A4.04,4.04,0,0,0,353.54,215.121Z" transform="translate(-260.108 -160.647)" fill="#0b155a"/>
      <path id="Path_1084" data-name="Path 1084" d="M363.719,227.293a.185.185,0,0,0-.256,0,5.18,5.18,0,0,1-4.412,1.094.185.185,0,0,0-.212.141.194.194,0,0,0,.141.221,6.047,6.047,0,0,0,1.28.115,5.3,5.3,0,0,0,3.432-1.306.185.185,0,0,0,.026-.265Z" transform="translate(-260.74 -162.248)" fill="#0b155a"/>
      <path id="Path_1085" data-name="Path 1085" d="M358.448,220.16a23.214,23.214,0,0,1-4.138,4.6,3.583,3.583,0,0,0,2.788,1.129Z" transform="translate(-260.207 -161.415)" fill="#ed847e" opacity="0.3"/>
      <path id="Path_1086" data-name="Path 1086" d="M355.393,220.107c.4.079.882-.344.979-.953s-.062-1.156-.459-1.235-.838.344-.979.953S354.987,220.028,355.393,220.107Z" transform="translate(-260.275 -161.15)" fill="#0b155a"/>
      <path id="Path_1087" data-name="Path 1087" d="M363.212,221.707c.4.079.829-.344.979-.953s-.071-1.156-.468-1.235-.838.344-.979.953S362.806,221.592,363.212,221.707Z" transform="translate(-261.194 -161.338)" fill="#0b155a"/>
      <path id="Path_1088" data-name="Path 1088" d="M377.587,209.806c3.732-3.194-4.774-9.706-4.774-9.706s.953,2.329-1.024,2.974-15.883-4.544-15.68,1.341a4.517,4.517,0,0,0,.768,2.321,6.706,6.706,0,0,0,1.5,1.544c3.229,2.453,9.106,3.2,12.283,3.2a16.352,16.352,0,0,0-1.05,3.829,10.191,10.191,0,0,0,1.932,7.941c1.765,3.071,4.121,2.982,6.132.644C380.9,220.844,384.019,214.659,377.587,209.806Z" transform="translate(-260.419 -159.055)" fill="#0b155a"/>
      <path id="Path_1089" data-name="Path 1089" d="M377.687,225.041c-1.465-.6-3.115.106-4.412,1.174a8.533,8.533,0,0,0-1.827,2c-1.244,1.95-.8,4.218,1.429,4.412h.918a7.685,7.685,0,0,0,4.65-2.206,3.574,3.574,0,0,0,.962-3.529A2.868,2.868,0,0,0,377.687,225.041Z" transform="translate(-262.143 -161.963)" fill="#ffc3bd"/>
      <path id="Path_1090" data-name="Path 1090" d="M341.619,328.706s-.238,2.065-.609,5.532a66.981,66.981,0,0,0,41.727.388c.088-4.191.15-6.7.15-6.7l-26.206.494h-.512Z" transform="translate(-258.643 -174.092)" fill="#0b155a"/>
      <path id="Path_1091" data-name="Path 1091" d="M414.025,287.191a8.737,8.737,0,0,0-.512-2.2,8.169,8.169,0,0,0-.45-1.024l-.256-.476-.141-.247a73.881,73.881,0,0,0-4.059-6.177l-8.012,7.721c1.059,1.324,2.091,2.647,3.044,4.006a6.323,6.323,0,0,1-.68,1.279,29.114,29.114,0,0,1-4.412,4.862A130.086,130.086,0,0,1,387.7,303.7l-1.227.159-4.923.671L376.71,307.8l3.185,6.477,4.006-2.047a15.4,15.4,0,0,0,2.815-.662,6.018,6.018,0,0,0,3.468-2.453,73.441,73.441,0,0,0,6.874-3.141,68.261,68.261,0,0,0,6.971-4.138q1.7-1.165,3.371-2.55a25.861,25.861,0,0,0,3.265-3.2,14.721,14.721,0,0,0,2.876-4.915,9.461,9.461,0,0,0,.485-3.98Zm-10.315,1.394v-.132c0-.212.079-.291.079-.168a.942.942,0,0,1-.062.3Z" transform="translate(-262.842 -168.109)" fill="#ffc3bd"/>
      <circle id="Ellipse_457" data-name="Ellipse 457" cx="24.221" cy="24.221" r="24.221" transform="translate(12.207 161.316) rotate(-80.78)" fill="#0b155a"/>
      <path id="Path_1092" data-name="Path 1092" d="M304.207,309.345H293.16V298.3a2.268,2.268,0,0,0-4.535,0v11.047H277.578a2.268,2.268,0,1,0,0,4.535h11.047v11.047a2.268,2.268,0,1,0,4.535,0V313.88h11.047a2.268,2.268,0,1,0,0-4.535Z" transform="translate(-250.914 -170.34)" fill="#fff"/>
      <path id="Path_1093" data-name="Path 1093" d="M364.728,216.668a2.788,2.788,0,0,1,2.012,1.641.371.371,0,0,0,.335.212.308.308,0,0,0,.15,0,.362.362,0,0,0,.176-.485,3.529,3.529,0,0,0-2.577-2.056.365.365,0,1,0-.1.724Z" transform="translate(-261.396 -160.923)" fill="#0b155a"/>
    </g>
  </g>
</svg>
