<svg xmlns="http://www.w3.org/2000/svg" width="350" height="302.518" viewBox="0 0 350 302.518">
  <g id="Plain_credit_card-rafiki" data-name="Plain credit card-rafiki" transform="translate(-108.762 -136.805)">
    <g id="freepik--Character--inject-2" transform="translate(108.762 136.805)">
      <path id="Path_1104" data-name="Path 1104" d="M218.644,151.011c.076,12.862-9.139,12.731-8.954,8.737s-2.095-13.556,0-12.634S218.612,145.324,218.644,151.011Z" transform="translate(-100.221 -135.93)" fill="#0b155a"/>
      <path id="Path_1105" data-name="Path 1105" d="M212.743,172.16c1.27-.1,3.821,1.085,4.048,4.439a6.306,6.306,0,0,0,2.811,4.873s-4.222.51-6.99-1.682c-2.258-1.769-3.256-5.644-2.073-6.512a5.959,5.959,0,0,1,2.2-1.118Z" transform="translate(-100.115 -133.787)" fill="#0b155a"/>
      <path id="Path_1106" data-name="Path 1106" d="M212.048,163.74c2.171,1.921,4.157,7-.738,9.41s-12.59-3.2-12.59-3.2l8.455-3.918Z" transform="translate(-101.081 -134.505)" fill="#263238"/>
      <path id="Path_1107" data-name="Path 1107" d="M213.57,172.774a9.7,9.7,0,0,0-.586-2.051.445.445,0,0,0-.662-.217l-3.007,2.008a.445.445,0,0,0,0,.738,7.4,7.4,0,0,0,1.389.8c.706.282,2.171-.521,2.67-.868a.423.423,0,0,0,.2-.412Z" transform="translate(-100.194 -133.934)" fill="#ff4a23"/>
      <path id="Path_1108" data-name="Path 1108" d="M213.57,172.774a9.7,9.7,0,0,0-.586-2.051.445.445,0,0,0-.662-.217l-3.007,2.008a.445.445,0,0,0,0,.738,7.4,7.4,0,0,0,1.389.8c.706.282,2.171-.521,2.67-.868a.423.423,0,0,0,.2-.412Z" transform="translate(-100.194 -133.934)" opacity="0.3"/>
      <path id="Path_1109" data-name="Path 1109" d="M184.108,167.689c-1.2-.4-3.962.141-4.982,3.354a6.328,6.328,0,0,1-3.886,4.07s3.983,1.5,7.2,0c2.6-1.183,4.45-4.721,3.549-5.85a5.72,5.72,0,0,0-1.878-1.574Z" transform="translate(-103.086 -134.178)" fill="#0b155a"/>
      <path id="Path_1110" data-name="Path 1110" d="M195.334,147.33c-4.4,1.194-10.311,6.4-7.684,12.8-2.594,1.769-5.915,6.86-2.03,10.116,4.179,3.506,14.457-1.411,14.457-1.411l.076-1.671,1.226-12.438Z" transform="translate(-102.352 -135.906)" fill="#0b155a"/>
      <path id="Path_1111" data-name="Path 1111" d="M182.642,168.1a9.67,9.67,0,0,1,1.085-1.856.456.456,0,0,1,.706,0l2.431,2.659a.456.456,0,0,1-.163.727,7.66,7.66,0,0,1-1.53.445c-.76.109-1.932-1.009-2.388-1.465a.456.456,0,0,1-.141-.51Z" transform="translate(-102.457 -134.306)" fill="#ff4a23"/>
      <path id="Path_1112" data-name="Path 1112" d="M182.642,168.1a9.67,9.67,0,0,1,1.085-1.856.456.456,0,0,1,.706,0l2.431,2.659a.456.456,0,0,1-.163.727,7.66,7.66,0,0,1-1.53.445c-.76.109-1.932-1.009-2.388-1.465a.456.456,0,0,1-.141-.51Z" transform="translate(-102.457 -134.306)" opacity="0.3"/>
      <path id="Path_1113" data-name="Path 1113" d="M219.517,189.07c2.073,1.606,4.342,3.321,6.621,4.884s4.569,3.137,6.925,4.58,4.743,2.789,7.153,4.07l1.813.923,1.845.857c.608.293,1.227.554,1.856.792l.923.38c.315.119.651.271.847.326a20.94,20.94,0,0,0,3.473.749c1.281.185,2.627.315,3.994.412,2.724.174,5.525.25,8.336.26s5.655,0,8.488-.087,5.7-.152,8.52-.239l.532,4.266a167.14,167.14,0,0,1-17.247,2.551c-2.92.261-5.85.456-8.846.478-1.5,0-3.017,0-4.58-.141a24.388,24.388,0,0,1-4.971-.814c-.5-.13-.814-.261-1.183-.38l-1.085-.38c-.727-.239-1.444-.5-2.171-.792l-2.106-.847-2.062-.912a82.21,82.21,0,0,1-7.956-4.124c-2.561-1.509-5.08-3.072-7.511-4.743a86.406,86.406,0,0,1-7.164-5.427Z" transform="translate(-99.78 -132.343)" fill="#e4897b"/>
      <path id="Path_1114" data-name="Path 1114" d="M208.9,184.611c2.7-2.106,13.828,4.787,17.214,7.663l-2.464,14.9s-16.009-6.708-16.975-11.288C205.68,191.1,206.863,186.217,208.9,184.611Z" transform="translate(-100.433 -132.757)" fill="#0b155a"/>
      <path id="Path_1115" data-name="Path 1115" d="M274.034,206.319l6.708-5.2.532,8.043s-4.624,2.865-7.674,1.085Z" transform="translate(-94.688 -131.314)" fill="#e4897b"/>
      <path id="Path_1116" data-name="Path 1116" d="M286.164,200.39l3.43,3.821-8.922,5.014-.532-8.043Z" transform="translate(-94.13 -131.376)" fill="#e4897b"/>
      <path id="Path_1117" data-name="Path 1117" d="M168.28,408l8.455.629,3.082-19.461-8.444-.63Z" transform="translate(-103.68 -115.312)" fill="#e4897b"/>
      <path id="Path_1118" data-name="Path 1118" d="M113.17,382.6l7.174,4.515,12.775-15.152-7.174-4.526Z" transform="translate(-108.386 -117.114)" fill="#e4897b"/>
      <path id="Path_1119" data-name="Path 1119" d="M122.989,384.628l-6.718-6.762a.673.673,0,0,0-.89-.065l-6.111,4.569a1.368,1.368,0,0,0-.109,2.03c2.377,2.312,3.647,3.31,6.6,6.284,1.813,1.834,4.276,4.689,6.784,7.218s5.134.174,4.342-1.085c-3.669-5.72-3.007-7.858-3.256-10.767a2.247,2.247,0,0,0-.64-1.422Z" transform="translate(-108.762 -116.241)" fill="#0b155a"/>
      <path id="Path_1120" data-name="Path 1120" d="M177.515,405.93h-9.53a.716.716,0,0,0-.705.586l-1.509,7.533a1.281,1.281,0,0,0,1.335,1.509c3.321-.054,4.938-.25,9.128-.25,2.572,0,9.768.26,13.361.26s3.951-3.517,2.486-3.831c-6.567-1.433-10.995-3.4-13.133-5.286a2.1,2.1,0,0,0-1.433-.521Z" transform="translate(-103.896 -113.827)" fill="#0b155a"/>
      <path id="Path_1121" data-name="Path 1121" d="M179.7,389.169l-1.715,10.81-8.336-1.4,1.6-10.029Z" transform="translate(-103.563 -115.311)" fill="#ce6f64"/>
      <path id="Path_1122" data-name="Path 1122" d="M125.369,367.45l7.174,4.515-5.286,6.273-7.337-4.331Z" transform="translate(-107.809 -117.113)" fill="#ce6f64"/>
      <path id="Path_1123" data-name="Path 1123" d="M174.2,230.194l33.8,6.588c17.464-47.29,13.665-48.842,13.665-48.842a67.87,67.87,0,0,0-7.6-3.582l-.456-.174c-2.171-.792-2.6-.912-5.492-1.758-4.971-1.183-9.606-2.171-15.347-2.985l-1.085-.152c-1.085-.13-2.073-.239-3.072-.336-.673-.076-1.346-.119-1.986-.163l-2.171-.119c-3.712-.185-6.371-.13-6.371-.13C179.117,208.074,177.445,216.551,174.2,230.194Z" transform="translate(-103.175 -133.242)" fill="#0b155a"/>
      <path id="Path_1124" data-name="Path 1124" d="M196.2,163.74c0,5.123-.792,14.36-4.9,16.986,0,0,.38,5.275,9.551,7.055,10.094,1.965,5.8-4.07,5.8-4.07-5.242-2.388-4.342-6.447-2.6-10.094Z" transform="translate(-101.715 -134.505)" fill="#e4897b"/>
      <path id="Path_1125" data-name="Path 1125" d="M198.815,167.45l4.645,5.85a16.488,16.488,0,0,0-1,2.627c-2.051-.716-4.493-3.582-4.342-5.828a7.6,7.6,0,0,1,.695-2.648Z" transform="translate(-101.133 -134.188)" fill="#ce6f64"/>
      <path id="Path_1126" data-name="Path 1126" d="M195.429,153.695c-1.085,8.347-1.747,11.852,1.6,16.9,5.025,7.6,15.51,7.109,19.081-.738,3.256-7.066,4.472-19.537-2.963-24.367a11.472,11.472,0,0,0-17.713,8.205Z" transform="translate(-101.438 -136.226)" fill="#e4897b"/>
      <path id="Path_1127" data-name="Path 1127" d="M222.984,141.054a10.593,10.593,0,0,1-.293,3.951,11.115,11.115,0,0,0-.315-1.292c-2.974-9.834-16.367-7.489-20.405-3.256-6.512-1.867-12.71-.38-11.885,7.6A9.92,9.92,0,0,0,192.2,153.7c-1.009,2.8,0,7.261,3.332,7.391,4.689.185,9.139-6.024,10.93-9.432,3.256.554,7.945,1.085,11.505.217.6.358,1.085.608,1.085.608C222.843,150.454,225.73,148.489,222.984,141.054Z" transform="translate(-101.825 -136.805)" fill="#0b155a"/>
      <path id="Path_1128" data-name="Path 1128" d="M192.7,158.363a6.176,6.176,0,0,0,1.422,4.472c1.411,1.639,3.256.673,3.918-1.27.554-1.758.478-4.721-1.411-5.644a2.757,2.757,0,0,0-3.929,2.442Z" transform="translate(-101.597 -135.195)" fill="#e4897b"/>
      <path id="Path_1129" data-name="Path 1129" d="M208.018,232.579s.13,67.1-5.362,92.366c-5.709,26.288-22.5,86.092-22.5,86.092L168,409.463s9.519-60.412,13.567-86.537c4.418-28.469,1.715-95.166,1.715-95.166Z" transform="translate(-103.704 -129.039)" fill="#ff4a23"/>
      <path id="Path_1130" data-name="Path 1130" d="M208.018,232.579s.13,67.1-5.362,92.366c-5.709,26.288-22.5,86.092-22.5,86.092L168,409.463s9.519-60.412,13.567-86.537c4.418-28.469,1.715-95.166,1.715-95.166Z" transform="translate(-103.704 -129.039)" opacity="0.3"/>
      <path id="Path_1131" data-name="Path 1131" d="M182.393,398.21,166.08,396.1l.695-5.774,18.517,2.171Z" transform="translate(-103.868 -115.159)" fill="#0b155a"/>
      <path id="Path_1132" data-name="Path 1132" d="M203.71,230.982s-18.2,55.452-27.243,87.395c-9.53,33.7-46.063,70.973-46.063,70.973l-10.474-6.056s24.964-35.383,34.135-66.827c18.679-63.831,11.006-77.355,24.768-90.336Z" transform="translate(-107.808 -129.178)" fill="#ff4a23"/>
      <path id="Path_1133" data-name="Path 1133" d="M203.71,230.982s-18.2,55.452-27.243,87.395c-9.53,33.7-46.063,70.973-46.063,70.973l-10.474-6.056s24.964-35.383,34.135-66.827c18.679-63.831,11.006-77.355,24.768-90.336Z" transform="translate(-107.808 -129.178)" opacity="0.3"/>
      <path id="Path_1134" data-name="Path 1134" d="M132.295,379.129l-14.555-8.4,3.625-5.188,16.161,8.911Z" transform="translate(-107.995 -117.276)" fill="#0b155a"/>
      <path id="Path_1135" data-name="Path 1135" d="M206.463,157.357c-.13.673.119,1.281.564,1.368s.9-.391,1.085-1.085-.119-1.292-.564-1.378S206.593,156.684,206.463,157.357Z" transform="translate(-100.423 -135.145)" fill="#0b155a"/>
      <path id="Path_1136" data-name="Path 1136" d="M213.453,158.715c-.13.673.119,1.292.564,1.378s.9-.391,1.031-1.085-.119-1.292-.564-1.368S213.583,158.031,213.453,158.715Z" transform="translate(-99.827 -135.027)" fill="#0b155a"/>
      <path id="Path_1137" data-name="Path 1137" d="M214.22,157.661l1.7-.141S214.85,158.616,214.22,157.661Z" transform="translate(-99.758 -135.036)" fill="#0b155a"/>
      <path id="Path_1138" data-name="Path 1138" d="M211.473,159.34a18.115,18.115,0,0,0,1.563,4.743,2.931,2.931,0,0,1-2.485,0Z" transform="translate(-100.071 -134.881)" fill="#de5753"/>
      <path id="Path_1139" data-name="Path 1139" d="M208.263,165.981h0a5.7,5.7,0,0,1-4.222-3.169.2.2,0,0,1,.109-.261.206.206,0,0,1,.26.109,5.427,5.427,0,0,0,3.929,2.931.2.2,0,0,1,.163.228.206.206,0,0,1-.239.163Z" transform="translate(-100.629 -134.608)" fill="#0b155a"/>
      <path id="Path_1140" data-name="Path 1140" d="M204.9,154.75a.4.4,0,0,1-.271-.695,4.016,4.016,0,0,1,3.527-1.009.412.412,0,0,1,.282.5.4.4,0,0,1-.488.282h0a3.256,3.256,0,0,0-2.789.825.391.391,0,0,1-.26.1Z" transform="translate(-100.588 -135.425)" fill="#0b155a"/>
      <path id="Path_1141" data-name="Path 1141" d="M217.556,156.235a.391.391,0,0,1-.369-.25,3.256,3.256,0,0,0-2.171-1.943.4.4,0,0,1-.326-.467.423.423,0,0,1,.467-.326,4.005,4.005,0,0,1,2.757,2.42.4.4,0,0,1-.217.532Z" transform="translate(-99.718 -135.401)" fill="#0b155a"/>
      <path id="Path_1142" data-name="Path 1142" d="M207.522,163.734a2.171,2.171,0,0,1-1.737-.857,6.87,6.87,0,0,1-.868-5.427c.619-3.43,2.768-6.219,4.8-6.219a2.247,2.247,0,0,1,1.747.868,6.9,6.9,0,0,1,.868,5.427C211.712,160.955,209.552,163.734,207.522,163.734Zm2.171-12.2c-1.9,0-3.94,2.692-4.537,5.991-.38,2.171-.076,4.124.814,5.177a1.954,1.954,0,0,0,1.53.76c1.91,0,3.94-2.681,4.537-5.98h0a6.512,6.512,0,0,0-.814-5.177,1.965,1.965,0,0,0-1.509-.771Z" transform="translate(-100.571 -135.573)" fill="#fafafa"/>
      <path id="Path_1143" data-name="Path 1143" d="M215.3,164.671h0a2.355,2.355,0,0,1-1.813-.912,6.328,6.328,0,0,1-.879-5.025c.554-3.191,2.637-5.774,4.645-5.774h0a2.355,2.355,0,0,1,1.813.923,6.36,6.36,0,0,1,.879,5.014h0C219.4,162.1,217.315,164.671,215.3,164.671Zm1.921-11.44c-1.889,0-3.842,2.486-4.342,5.557a6.165,6.165,0,0,0,.825,4.8,2.106,2.106,0,0,0,1.606.814h0c1.889,0,3.853-2.475,4.342-5.546h0a6.208,6.208,0,0,0-.814-4.8,2.106,2.106,0,0,0-1.606-.825Z" transform="translate(-99.912 -135.426)" fill="#fafafa"/>
      <path id="Path_1144" data-name="Path 1144" d="M124.394,387.941h0c-1.085,0-2.225-1.671-2.811-2.637a.2.2,0,0,1,0-.217.228.228,0,0,1,.206-.087c.347.076,3.332.727,3.712,1.747a.662.662,0,0,1-.119.673,1.15,1.15,0,0,1-.988.521Zm-2.268-2.442c.836,1.259,1.65,2.008,2.236,2.04a.76.76,0,0,0,.651-.358.271.271,0,0,0,.054-.293C124.871,386.346,123.319,385.8,122.125,385.5Z" transform="translate(-107.67 -115.614)" fill="#ff4a23"/>
      <path id="Path_1145" data-name="Path 1145" d="M122.619,385.629a3.92,3.92,0,0,1-.977-.109.228.228,0,0,1-.141-.141.261.261,0,0,1,0-.2c.076-.065,1.737-1.7,2.963-1.7h.087a1.085,1.085,0,0,1,.781.412.716.716,0,0,1,.087.879C125.072,385.358,123.683,385.629,122.619,385.629Zm-.488-.423c1.02.119,2.67-.174,3.007-.662.054-.076.1-.2-.065-.4a.619.619,0,0,0-.5-.26,4.591,4.591,0,0,0-2.442,1.324Z" transform="translate(-107.676 -115.744)" fill="#ff4a23"/>
      <path id="Path_1146" data-name="Path 1146" d="M179.683,407.471a14.362,14.362,0,0,1-2.67-.326.2.2,0,0,1-.054-.38c.4-.2,3.886-1.932,4.9-1.346a.651.651,0,0,1,.3.543,1.14,1.14,0,0,1-.423.966,3.256,3.256,0,0,1-2.051.543Zm-1.986-.586c1.856.3,3.256.228,3.8-.239a.792.792,0,0,0,.271-.651.228.228,0,0,0-.109-.206c-.543-.315-2.475.423-3.962,1.1Z" transform="translate(-102.949 -113.881)" fill="#ff4a23"/>
      <path id="Path_1147" data-name="Path 1147" d="M177.066,407.3a.217.217,0,0,1-.119,0,.2.2,0,0,1-.087-.2c0-.152.521-3.6,2.41-3.6h.163c.543.054.695.326.727.554.152.955-1.954,2.8-3.017,3.256Zm2.171-3.43c-1.227,0-1.769,2-1.954,2.865,1.085-.64,2.529-2.084,2.442-2.659,0,0,0-.174-.38-.206Z" transform="translate(-102.948 -114.035)" fill="#ff4a23"/>
      <path id="Path_1148" data-name="Path 1148" d="M207.23,156.3l1.7-.152S207.86,157.257,207.23,156.3Z" transform="translate(-100.355 -135.153)" fill="#0b155a"/>
      <path id="Path_1149" data-name="Path 1149" d="M201.791,193.723c-14.11-5.351-18.517-13.361-18.18-15.043h0l2.171.13h.369a13.751,13.751,0,0,1,1.617.141c1,.087,2.03.2,3.072.336l1.085.152a109.306,109.306,0,0,1,15.347,2.985c2.3.673,3.061.89,4.342,1.346l1.14.412.456.174C214.338,186.788,214.089,191.759,201.791,193.723Z" transform="translate(-102.373 -133.23)" fill="#e4897b"/>
      <path id="Path_1150" data-name="Path 1150" d="M201.791,193.723c-14.11-5.351-18.517-13.361-18.18-15.043h0l2.171.13h.369c2.865,4.07,9.139,9.692,15.532,10.463,5.145-1.085,10-2.323,9.953-5.5l1.14.412.456.174C214.338,186.788,214.089,191.759,201.791,193.723Z" transform="translate(-102.373 -133.23)" fill="#ff4a23"/>
      <path id="Path_1151" data-name="Path 1151" d="M201.791,193.723c-14.11-5.351-18.517-13.361-18.18-15.043h0l2.171.13h.369c2.865,4.07,9.139,9.692,15.532,10.463,5.145-1.085,10-2.323,9.953-5.5l1.14.412.456.174C214.338,186.788,214.089,191.759,201.791,193.723Z" transform="translate(-102.373 -133.23)" opacity="0.3"/>
      <path id="Path_1152" data-name="Path 1152" d="M174.265,224.222l-2.171,2.735c-.163.206.076.5.467.575l35.448,6.9c.3.065.586,0,.64-.228l.89-2.963c.065-.206-.163-.434-.5-.5l-34.233-6.664A.63.63,0,0,0,174.265,224.222Z" transform="translate(-103.359 -129.354)" fill="#0b155a"/>
      <path id="Path_1153" data-name="Path 1153" d="M177.733,228.909l-.912-.174c-.185,0-.3-.152-.271-.271l1.194-3.842c0-.119.217-.174.391-.141l.923.174c.185,0,.3.163.271.271l-1.194,3.853A.347.347,0,0,1,177.733,228.909Z" transform="translate(-102.975 -129.32)" fill="#ff4a23"/>
      <path id="Path_1154" data-name="Path 1154" d="M177.733,228.909l-.912-.174c-.185,0-.3-.152-.271-.271l1.194-3.842c0-.119.217-.174.391-.141l.923.174c.185,0,.3.163.271.271l-1.194,3.853A.347.347,0,0,1,177.733,228.909Z" transform="translate(-102.975 -129.32)" opacity="0.3"/>
      <path id="Path_1155" data-name="Path 1155" d="M180.67,190.736c-.412,2.572-.8,5.427-1.085,8.1s-.532,5.427-.662,8.205q-.109,2.051-.13,4.1v4.07a69.3,69.3,0,0,0,.619,7.945,7.6,7.6,0,0,0,1.085,2.529,25.648,25.648,0,0,0,2.171,3.017,68.139,68.139,0,0,0,5.557,5.85c1.986,1.91,4.07,3.755,6.208,5.557s4.342,3.593,6.512,5.318l-2.334,3.6A113.222,113.222,0,0,1,184,239.492a62.524,62.524,0,0,1-6.729-5.97,31.065,31.065,0,0,1-3.072-3.7,14.11,14.11,0,0,1-2.4-5.2l-.4-2.3c-.141-.749-.239-1.5-.326-2.236-.217-1.5-.336-2.985-.456-4.472a83.95,83.95,0,0,1-.206-8.889c.087-2.941.25-5.872.543-8.792s.662-5.785,1.248-8.8Z" transform="translate(-103.501 -132.337)" fill="#e4897b"/>
      <path id="Path_1156" data-name="Path 1156" d="M173.507,180.809c-4.645,3.755-3.538,14.913-3.538,14.913l15.629,5.145s-.716-12.862-1.476-17.485C183.189,177.879,178.066,177.108,173.507,180.809Z" transform="translate(-103.546 -133.242)" fill="#0b155a"/>
      <path id="Path_1157" data-name="Path 1157" d="M196.919,240.567l7.066-2.627-1.085,6.719s-5.123,1.845-7.75-.521Z" transform="translate(-101.386 -128.17)" fill="#e4897b"/>
      <path id="Path_1158" data-name="Path 1158" d="M211.787,238.939v5.188l-9.5.532,1.085-6.719Z" transform="translate(-100.777 -128.17)" fill="#e4897b"/>
      <path id="Path_1159" data-name="Path 1159" d="M202.883,233.809l-.912-.174c-.185,0-.3-.152-.271-.271l1.194-3.842c0-.119.217-.174.4-.141l.912.174c.185,0,.3.163.271.271l-1.194,3.853C203.253,233.787,203.111,233.852,202.883,233.809Z" transform="translate(-100.827 -128.902)" fill="#ff4a23"/>
      <path id="Path_1160" data-name="Path 1160" d="M202.883,233.809l-.912-.174c-.185,0-.3-.152-.271-.271l1.194-3.842c0-.119.217-.174.4-.141l.912.174c.185,0,.3.163.271.271l-1.194,3.853C203.253,233.787,203.111,233.852,202.883,233.809Z" transform="translate(-100.827 -128.902)" opacity="0.3"/>
      <path id="Path_1161" data-name="Path 1161" d="M190.314,231.349l-.923-.174c-.185,0-.3-.152-.26-.271l1.194-3.842c0-.119.206-.174.391-.141l.923.174c.174,0,.3.163.26.271l-1.194,3.853C190.672,231.349,190.5,231.4,190.314,231.349Z" transform="translate(-101.901 -129.112)" fill="#ff4a23"/>
      <path id="Path_1162" data-name="Path 1162" d="M190.314,231.349l-.923-.174c-.185,0-.3-.152-.26-.271l1.194-3.842c0-.119.206-.174.391-.141l.923.174c.174,0,.3.163.26.271l-1.194,3.853C190.672,231.349,190.5,231.4,190.314,231.349Z" transform="translate(-101.901 -129.112)" opacity="0.3"/>
      <path id="Path_1163" data-name="Path 1163" d="M126.611,298.371l56.266,122.887a11.646,11.646,0,0,0,15.391,5.72L207.2,422.9l206.841-94.7a11.635,11.635,0,0,0,5.731-15.38L370.051,204.28l-6.512-14.338a11.657,11.657,0,0,0-15.391-5.72L132.364,282.991a11.657,11.657,0,0,0-5.753,15.38Z" transform="translate(-107.326 -132.845)" fill="#ff4a23"/>
      <path id="Path_1164" data-name="Path 1164" d="M126.611,298.371l56.266,122.887a11.646,11.646,0,0,0,15.391,5.72L207.2,422.9l206.841-94.7a11.635,11.635,0,0,0,5.731-15.38L370.051,204.28l-6.512-14.338a11.657,11.657,0,0,0-15.391-5.72L132.364,282.991a11.657,11.657,0,0,0-5.753,15.38Z" transform="translate(-107.326 -132.845)" fill="#fff" opacity="0.1"/>
      <rect id="Rectangle_17459" data-name="Rectangle 17459" width="260.534" height="66.599" transform="matrix(-0.909, 0.416, -0.416, -0.909, 306.733, 167.495)" fill="#ff4a23"/>
      <rect id="Rectangle_17460" data-name="Rectangle 17460" width="260.534" height="66.599" transform="matrix(-0.909, 0.416, -0.416, -0.909, 306.733, 167.495)" fill="#fff" opacity="0.3"/>
      <rect id="Rectangle_17461" data-name="Rectangle 17461" width="164.641" height="23.835" transform="matrix(-0.909, 0.416, -0.416, -0.909, 279.12, 156.623)" fill="#ff4a23"/>
      <rect id="Rectangle_17462" data-name="Rectangle 17462" width="164.641" height="23.835" transform="matrix(-0.909, 0.416, -0.416, -0.909, 279.12, 156.623)" fill="#fff" opacity="0.8"/>
      <rect id="Rectangle_17463" data-name="Rectangle 17463" width="260.534" height="35.535" transform="matrix(-0.909, 0.416, -0.416, -0.909, 284.298, 118.517)" fill="#ff4a23"/>
      <rect id="Rectangle_17464" data-name="Rectangle 17464" width="260.534" height="35.535" transform="matrix(-0.909, 0.416, -0.416, -0.909, 284.298, 118.517)" opacity="0.3"/>
      <path id="Path_1165" data-name="Path 1165" d="M156.233,298.256,204.652,421.2l206.841-94.7a11.635,11.635,0,0,0,5.731-15.38L367.5,202.58,162.788,283.2a11.646,11.646,0,0,0-6.556,15.054Z" transform="translate(-104.777 -131.189)" fill="#ff4a23"/>
      <rect id="Rectangle_17465" data-name="Rectangle 17465" width="1.085" height="5.112" transform="translate(324.206 128.567) rotate(-19.36)" fill="#ff4a23"/>
      <rect id="Rectangle_17466" data-name="Rectangle 17466" width="1.085" height="5.112" transform="translate(324.206 128.567) rotate(-19.36)" fill="#fff" opacity="0.1"/>
      <rect id="Rectangle_17467" data-name="Rectangle 17467" width="1.085" height="20.145" transform="translate(315.653 104.312) rotate(-19.35)" fill="#ff4a23"/>
      <rect id="Rectangle_17468" data-name="Rectangle 17468" width="1.085" height="20.145" transform="translate(315.653 104.312) rotate(-19.35)" fill="#fff" opacity="0.1"/>
      <path id="Path_1166" data-name="Path 1166" d="M170.05,283.487l223.914-78.636a11.635,11.635,0,0,1,14.794,7.109L453.54,339.481a11.646,11.646,0,0,1-7.1,14.8L222.528,432.922a11.657,11.657,0,0,1-14.8-7.109L162.941,298.291A11.646,11.646,0,0,1,170.05,283.487Z" transform="translate(-104.192 -131.051)" fill="#ff4a23"/>
      <path id="Path_1167" data-name="Path 1167" d="M170.05,283.487l223.914-78.636a11.635,11.635,0,0,1,14.794,7.109L453.54,339.481a11.646,11.646,0,0,1-7.1,14.8L222.528,432.922a11.657,11.657,0,0,1-14.8-7.109L162.941,298.291A11.646,11.646,0,0,1,170.05,283.487Z" transform="translate(-104.192 -131.051)" fill="#fff" opacity="0.1"/>
      <rect id="Rectangle_17469" data-name="Rectangle 17469" width="260.534" height="58.795" transform="translate(341.188 185.184) rotate(160.65)" fill="#ff4a23"/>
      <rect id="Rectangle_17470" data-name="Rectangle 17470" width="260.534" height="58.795" transform="translate(341.188 185.184) rotate(160.65)" fill="#fff" opacity="0.3"/>
      <rect id="Rectangle_17471" data-name="Rectangle 17471" width="53.856" height="8.39" transform="translate(295.063 110.634) rotate(160.65)" fill="#ff4a23"/>
      <rect id="Rectangle_17472" data-name="Rectangle 17472" width="53.856" height="8.39" transform="translate(295.063 110.634) rotate(160.65)" fill="#fff" opacity="0.8"/>
      <rect id="Rectangle_17473" data-name="Rectangle 17473" width="43.209" height="4.385" transform="translate(327.781 203.792) rotate(160.65)" fill="#ff4a23"/>
      <rect id="Rectangle_17474" data-name="Rectangle 17474" width="43.209" height="4.385" transform="translate(327.781 203.792) rotate(160.65)" fill="#fff" opacity="0.8"/>
      <rect id="Rectangle_17475" data-name="Rectangle 17475" width="55.68" height="4.385" transform="translate(330.559 211.711) rotate(160.65)" fill="#ff4a23"/>
      <rect id="Rectangle_17476" data-name="Rectangle 17476" width="55.68" height="4.385" transform="translate(330.559 211.711) rotate(160.65)" fill="#fff" opacity="0.8"/>
      <rect id="Rectangle_17477" data-name="Rectangle 17477" width="27.84" height="9.432" transform="translate(144.909 276.907) rotate(160.65)" fill="#ff4a23"/>
      <rect id="Rectangle_17478" data-name="Rectangle 17478" width="27.84" height="9.432" transform="translate(144.909 276.907) rotate(160.65)" fill="#fff" opacity="0.8"/>
      <path id="Path_1168" data-name="Path 1168" d="M369.469,315.337l30.673-10.767a6.512,6.512,0,0,0,3.972-8.26h0a6.512,6.512,0,0,0-8.26-3.972l-30.684,10.778a6.512,6.512,0,0,0-3.973,8.26h0A6.512,6.512,0,0,0,369.469,315.337Z" transform="translate(-87.24 -123.556)" fill="#ff4a23"/>
      <path id="Path_1169" data-name="Path 1169" d="M321.058,332.334l30.684-10.778a6.512,6.512,0,0,0,3.962-8.216h0a6.512,6.512,0,0,0-8.26-3.962l-30.673,10.778a6.512,6.512,0,0,0-3.972,8.26h0A6.512,6.512,0,0,0,321.058,332.334Z" transform="translate(-91.372 -122.101)" fill="#ff4a23"/>
      <path id="Path_1170" data-name="Path 1170" d="M272.681,349.334l30.684-10.778a6.512,6.512,0,0,0,3.94-8.216h0a6.512,6.512,0,0,0-8.26-3.962L268.34,337.113a6.512,6.512,0,0,0-3.962,8.26h0a6.512,6.512,0,0,0,8.3,3.962Z" transform="translate(-95.506 -120.65)" fill="#ff4a23"/>
      <path id="Path_1171" data-name="Path 1171" d="M224.248,366.334l30.684-10.778a6.512,6.512,0,0,0,3.973-8.216h0a6.512,6.512,0,0,0-8.26-3.962l-30.684,10.778a6.512,6.512,0,0,0-3.973,8.26h0a6.512,6.512,0,0,0,8.26,3.918Z" transform="translate(-99.638 -119.199)" fill="#ff4a23"/>
      <g id="Group_3567" data-name="Group 3567" transform="translate(115.992 168.424)" opacity="0.8">
        <path id="Path_1172" data-name="Path 1172" d="M369.469,315.337l30.673-10.767a6.512,6.512,0,0,0,3.972-8.26h0a6.512,6.512,0,0,0-8.26-3.972l-30.684,10.778a6.512,6.512,0,0,0-3.973,8.26h0A6.512,6.512,0,0,0,369.469,315.337Z" transform="translate(-203.232 -291.98)" fill="#fff"/>
        <path id="Path_1173" data-name="Path 1173" d="M321.058,332.334l30.684-10.778a6.512,6.512,0,0,0,3.962-8.216h0a6.512,6.512,0,0,0-8.26-3.962l-30.673,10.778a6.512,6.512,0,0,0-3.972,8.26h0A6.512,6.512,0,0,0,321.058,332.334Z" transform="translate(-207.365 -290.525)" fill="#fff"/>
        <path id="Path_1174" data-name="Path 1174" d="M272.681,349.334l30.684-10.778a6.512,6.512,0,0,0,3.94-8.216h0a6.512,6.512,0,0,0-8.26-3.962L268.34,337.113a6.512,6.512,0,0,0-3.962,8.26h0a6.512,6.512,0,0,0,8.3,3.962Z" transform="translate(-211.499 -289.074)" fill="#fff"/>
        <path id="Path_1175" data-name="Path 1175" d="M224.248,366.334l30.684-10.778a6.512,6.512,0,0,0,3.973-8.216h0a6.512,6.512,0,0,0-8.26-3.962l-30.684,10.778a6.512,6.512,0,0,0-3.973,8.26h0a6.512,6.512,0,0,0,8.26,3.918Z" transform="translate(-215.63 -287.623)" fill="#fff"/>
      </g>
      <rect id="Rectangle_17479" data-name="Rectangle 17479" width="37.836" height="26.071" rx="4.1" transform="translate(310.999 156.034) rotate(160.65)" fill="#ff4a23"/>
      <rect id="Rectangle_17480" data-name="Rectangle 17480" width="37.836" height="26.071" rx="4.1" transform="translate(310.999 156.034) rotate(160.65)" opacity="0.3"/>
      <path id="Path_1176" data-name="Path 1176" d="M219.237,308.683a15.716,15.716,0,1,1,5.21-.89,15.716,15.716,0,0,1-5.21.89Zm0-30.391a14.925,14.925,0,0,0-4.9.836,14.739,14.739,0,0,0-9.019,18.788h0a14.729,14.729,0,1,0,13.915-19.624Z" transform="translate(-100.672 -124.814)" fill="#ff4a23"/>
      <path id="Path_1177" data-name="Path 1177" d="M219.237,308.683a15.716,15.716,0,1,1,5.21-.89,15.716,15.716,0,0,1-5.21.89Zm0-30.391a14.925,14.925,0,0,0-4.9.836,14.739,14.739,0,0,0-9.019,18.788h0a14.729,14.729,0,1,0,13.915-19.624Z" transform="translate(-100.672 -124.814)" fill="#fff" opacity="0.8"/>
      <path id="Path_1178" data-name="Path 1178" d="M184.148,305.264a15.2,15.2,0,1,0,.628-11.637,15.2,15.2,0,0,0-.628,11.637Z" transform="translate(-102.4 -124.152)" fill="#ff4a23"/>
      <path id="Path_1179" data-name="Path 1179" d="M184.148,305.264a15.2,15.2,0,1,0,.628-11.637,15.2,15.2,0,0,0-.628,11.637Z" transform="translate(-102.4 -124.152)" fill="#fff" opacity="0.8"/>
    </g>
  </g>
</svg>
