<svg xmlns="http://www.w3.org/2000/svg" width="40" height="40" viewBox="0 0 40 40"><g transform="translate(-622.052 -494.155)"><path d="M640.338,518.726a6.286,6.286,0,1,1,6.286-6.286A6.292,6.292,0,0,1,640.338,518.726Zm0-10.286a4,4,0,1,0,4,4A4.005,4.005,0,0,0,640.338,508.441Z" transform="translate(1.714 1.714)" fill="#306bad"/><path d="M642.189,534.155a4.576,4.576,0,0,1-4.572-4.571v-.153a1.673,1.673,0,0,0-1.1-1.518,1.71,1.71,0,0,0-1.926.311l-.094.094a4.573,4.573,0,1,1-6.467-6.467l.1-.1a1.716,1.716,0,0,0-.067-2.407,1.715,1.715,0,0,0-1.163-.477h-.276a4.571,4.571,0,0,1,0-9.143h.154a1.668,1.668,0,0,0,1.515-1.1,1.707,1.707,0,0,0-.314-1.925l-.1-.1a4.575,4.575,0,0,1,3.239-7.807h0a4.545,4.545,0,0,1,3.234,1.343l.1.1a1.672,1.672,0,0,0,1.85.328,1.124,1.124,0,0,1,.317-.087,1.688,1.688,0,0,0,.854-1.461v-.287a4.571,4.571,0,1,1,9.143,0v.154a1.715,1.715,0,0,0,2.9,1.2l.091-.091a4.573,4.573,0,0,1,6.463,6.472l-.109.107a1.675,1.675,0,0,0-.329,1.848,1.165,1.165,0,0,1,.089.314,1.682,1.682,0,0,0,1.463.854h.289a4.571,4.571,0,0,1,0,9.143h-.154a1.685,1.685,0,0,0-1.539,1.022l0,.011a1.678,1.678,0,0,0,.337,1.859l.1.1a4.573,4.573,0,0,1-6.471,6.463l-.1-.1a1.594,1.594,0,0,0-1.209-.463,1.711,1.711,0,0,0-1.678,1.689v.275A4.576,4.576,0,0,1,642.189,534.155Zm-6.426-8.7a3.981,3.981,0,0,1,1.607.341A3.922,3.922,0,0,1,639.9,529.4v.181a2.286,2.286,0,1,0,4.571,0v-.291a4,4,0,0,1,3.915-3.959,3.921,3.921,0,0,1,2.853,1.111l.115.115a2.34,2.34,0,0,0,3.239,0,2.284,2.284,0,0,0,0-3.234l-.106-.109a3.994,3.994,0,0,1,2.831-6.781h.159a2.286,2.286,0,0,0,0-4.571h-.292a3.971,3.971,0,0,1-3.646-2.407,1.136,1.136,0,0,1-.089-.358,3.953,3.953,0,0,1,.895-4.151l.117-.114a2.29,2.29,0,0,0,0-3.231,2.344,2.344,0,0,0-3.235,0l-.109.107a4,4,0,0,1-6.779-2.819v-.17a2.286,2.286,0,0,0-4.571,0v.291a3.971,3.971,0,0,1-2.407,3.639,1.143,1.143,0,0,1-.358.089,3.955,3.955,0,0,1-4.15-.888l-.111-.112a2.276,2.276,0,0,0-1.62-.672h0a2.289,2.289,0,0,0-1.621,3.907l.105.105a4.107,4.107,0,0,1-2.8,6.92h-.181a2.286,2.286,0,0,0,0,4.571h.292a4,4,0,0,1,2.847,6.768l-.119.12a2.286,2.286,0,0,0,0,3.235,2.343,2.343,0,0,0,3.235,0l.1-.1A3.974,3.974,0,0,1,635.763,525.454Zm18.974-6.156h0Z" transform="translate(0 0)" fill="#306bad"/></g></svg>